<svg width="499" height="477" viewBox="0 0 499 477" fill="none" xmlns="http://www.w3.org/2000/svg">
<path d="M272.379 2.51089C209.938 14.8006 178.06 85.4457 77.5059 148.311C-23.0467 211.174 -0.908791 456.647 157.901 416.613C309.405 378.421 316.417 381.436 415.641 384.962C539.835 389.375 469.98 -36.3768 272.379 2.51089Z" fill="url(#paint0_linear_4374_454)"/>
<rect x="123.5" y="68" width="375" height="340" rx="8" fill="white"/>
<path d="M386.085 133.034C382.684 121.454 372.058 113.5 359.989 113.5H352.049C338.92 113.5 327.666 122.877 325.296 135.79L311.697 209.892L315.072 198.346C318.462 186.749 329.095 178.778 341.179 178.778H387.32L406.671 186.316L425.324 178.778H419.88C407.81 178.778 397.184 170.824 393.783 159.243L386.085 133.034Z" fill="url(#paint1_radial_4374_454)"/>
<path d="M269.694 328.854C273.057 340.49 283.71 348.5 295.823 348.5H312.686C327.436 348.5 339.497 336.744 339.876 322L341.713 250.547L337.871 263.666C334.477 275.258 323.846 283.222 311.768 283.222H265.243L248.656 274.224L230.699 283.222H236.053C248.165 283.222 258.818 291.232 262.182 302.868L269.694 328.854Z" fill="url(#paint2_radial_4374_454)"/>
<path d="M358.808 113.5H264.577C237.654 113.5 221.5 149.083 210.731 184.665C197.972 226.821 181.277 283.201 229.577 283.201H270.266C282.425 283.201 293.099 275.161 296.441 263.471C303.515 238.722 315.912 195.547 325.65 162.681C330.599 145.979 334.721 131.635 341.048 122.702C344.594 117.694 350.505 113.5 358.808 113.5Z" fill="url(#paint3_linear_4374_454)"/>
<path d="M358.808 113.5H264.577C237.654 113.5 221.5 149.083 210.731 184.665C197.972 226.821 181.277 283.201 229.577 283.201H270.266C282.425 283.201 293.099 275.161 296.441 263.471C303.515 238.722 315.912 195.547 325.65 162.681C330.599 145.979 334.721 131.635 341.048 122.702C344.594 117.694 350.505 113.5 358.808 113.5Z" fill="url(#paint4_linear_4374_454)"/>
<path d="M294.176 348.499H388.407C415.33 348.499 431.484 312.911 442.253 277.323C455.012 235.16 471.707 178.77 423.407 178.77H382.72C370.56 178.77 359.886 186.81 356.545 198.501C349.47 223.254 337.073 266.437 327.334 299.31C322.385 316.015 318.263 330.362 311.937 339.296C308.39 344.305 302.479 348.499 294.176 348.499Z" fill="url(#paint5_radial_4374_454)"/>
<path d="M294.176 348.499H388.407C415.33 348.499 431.484 312.911 442.253 277.323C455.012 235.16 471.707 178.77 423.407 178.77H382.72C370.56 178.77 359.886 186.81 356.545 198.501C349.47 223.254 337.073 266.437 327.334 299.31C322.385 316.015 318.263 330.362 311.937 339.296C308.39 344.305 302.479 348.499 294.176 348.499Z" fill="url(#paint6_linear_4374_454)"/>
<g filter="url(#filter0_b_4374_454)">
<rect x="0.5" y="404" width="275" height="73" rx="8" fill="white" fill-opacity="0.1"/>
<rect x="1" y="404.5" width="274" height="72" rx="7.5" stroke="url(#paint7_linear_4374_454)"/>
<path d="M28.7773 449H24.5527V437.434C24.5527 437.115 24.5573 436.723 24.5664 436.258C24.5755 435.784 24.5892 435.301 24.6074 434.809C24.6257 434.307 24.6439 433.856 24.6621 433.455C24.5618 433.574 24.3568 433.779 24.0469 434.07C23.7461 434.353 23.4635 434.608 23.1992 434.836L20.9023 436.682L18.8652 434.139L25.3047 429.012H28.7773V449ZM40.5078 433.715H45.0742L47.959 442.314C48.0501 442.588 48.1276 442.866 48.1914 443.148C48.2552 443.431 48.3099 443.723 48.3555 444.023C48.401 444.324 48.4375 444.639 48.4648 444.967H48.5469C48.6016 444.475 48.6745 444.014 48.7656 443.586C48.8659 443.158 48.9889 442.734 49.1348 442.314L51.9648 433.715H56.4355L49.9688 450.955C49.5768 452.012 49.0664 452.892 48.4375 453.594C47.8086 454.305 47.084 454.838 46.2637 455.193C45.4525 455.549 44.5592 455.727 43.584 455.727C43.11 455.727 42.6999 455.699 42.3535 455.645C42.0072 455.599 41.7109 455.549 41.4648 455.494V452.186C41.6562 452.231 41.8978 452.272 42.1895 452.309C42.4811 452.345 42.7865 452.363 43.1055 452.363C43.6888 452.363 44.1901 452.24 44.6094 451.994C45.0286 451.748 45.3796 451.415 45.6621 450.996C45.9447 450.586 46.168 450.135 46.332 449.643L46.5781 448.891L40.5078 433.715ZM64.9395 433.428C66.3522 433.428 67.569 433.701 68.5898 434.248C69.6107 434.786 70.3991 435.57 70.9551 436.6C71.5111 437.63 71.7891 438.887 71.7891 440.373V442.396H61.9316C61.9772 443.572 62.3281 444.497 62.9844 445.172C63.6497 445.837 64.5703 446.17 65.7461 446.17C66.7214 446.17 67.6146 446.07 68.4258 445.869C69.237 445.669 70.071 445.368 70.9277 444.967V448.193C70.1712 448.567 69.3783 448.84 68.5488 449.014C67.7285 449.187 66.7305 449.273 65.5547 449.273C64.0234 449.273 62.6654 448.991 61.4805 448.426C60.3047 447.861 59.3796 446.999 58.7051 445.842C58.0397 444.684 57.707 443.226 57.707 441.467C57.707 439.68 58.0078 438.195 58.6094 437.01C59.2201 435.816 60.0677 434.923 61.1523 434.33C62.237 433.729 63.4993 433.428 64.9395 433.428ZM64.9668 436.395C64.1556 436.395 63.4811 436.654 62.9434 437.174C62.4147 437.693 62.1094 438.509 62.0273 439.621H67.8789C67.8698 439.001 67.7559 438.45 67.5371 437.967C67.3275 437.484 67.0085 437.101 66.5801 436.818C66.1608 436.536 65.623 436.395 64.9668 436.395ZM81.4414 433.4C83.4922 433.4 85.0645 433.847 86.1582 434.74C87.252 435.633 87.7988 436.992 87.7988 438.814V449H84.8867L84.0801 446.922H83.9707C83.5332 447.469 83.0866 447.915 82.6309 448.262C82.1751 448.608 81.651 448.863 81.0586 449.027C80.4661 449.191 79.7461 449.273 78.8984 449.273C77.9961 449.273 77.1849 449.1 76.4648 448.754C75.7539 448.408 75.1934 447.879 74.7832 447.168C74.373 446.448 74.168 445.536 74.168 444.434C74.168 442.811 74.7376 441.617 75.877 440.852C77.0163 440.077 78.7253 439.648 81.0039 439.566L83.6562 439.484V438.814C83.6562 438.012 83.4466 437.424 83.0273 437.051C82.6081 436.677 82.0247 436.49 81.2773 436.49C80.5391 436.49 79.8145 436.595 79.1035 436.805C78.3926 437.014 77.6816 437.279 76.9707 437.598L75.5898 434.781C76.401 434.353 77.3079 434.016 78.3105 433.77C79.3223 433.523 80.3659 433.4 81.4414 433.4ZM83.6562 441.918L82.043 441.973C80.694 442.009 79.7552 442.251 79.2266 442.697C78.707 443.144 78.4473 443.732 78.4473 444.461C78.4473 445.099 78.6341 445.555 79.0078 445.828C79.3815 446.092 79.8691 446.225 80.4707 446.225C81.3639 446.225 82.1159 445.96 82.7266 445.432C83.3464 444.903 83.6562 444.151 83.6562 443.176V441.918ZM100.637 433.428C100.846 433.428 101.088 433.441 101.361 433.469C101.644 433.487 101.872 433.514 102.045 433.551L101.73 437.461C101.594 437.415 101.398 437.383 101.143 437.365C100.896 437.338 100.682 437.324 100.5 437.324C99.9622 437.324 99.4382 437.393 98.9277 437.529C98.4264 437.666 97.9753 437.889 97.5742 438.199C97.1732 438.5 96.8542 438.901 96.6172 439.402C96.3893 439.895 96.2754 440.501 96.2754 441.221V449H92.1055V433.715H95.2637L95.8789 436.285H96.084C96.3848 435.766 96.7585 435.292 97.2051 434.863C97.6608 434.426 98.1758 434.079 98.75 433.824C99.3333 433.56 99.9622 433.428 100.637 433.428ZM110.891 440.51C110.891 439.361 110.973 438.227 111.137 437.105C111.31 435.975 111.606 434.913 112.025 433.92C112.445 432.917 113.033 432.033 113.789 431.268C114.546 430.493 115.507 429.887 116.674 429.449C117.84 429.003 119.253 428.779 120.912 428.779C121.304 428.779 121.76 428.798 122.279 428.834C122.808 428.861 123.245 428.911 123.592 428.984V432.361C123.227 432.279 122.835 432.215 122.416 432.17C122.006 432.115 121.596 432.088 121.186 432.088C119.527 432.088 118.242 432.352 117.33 432.881C116.428 433.41 115.79 434.143 115.416 435.082C115.051 436.012 114.837 437.096 114.773 438.336H114.951C115.206 437.889 115.525 437.493 115.908 437.146C116.3 436.8 116.774 436.527 117.33 436.326C117.886 436.117 118.538 436.012 119.285 436.012C120.452 436.012 121.464 436.262 122.32 436.764C123.177 437.256 123.838 437.971 124.303 438.91C124.768 439.849 125 440.993 125 442.342C125 443.782 124.722 445.021 124.166 446.061C123.61 447.1 122.822 447.897 121.801 448.453C120.789 449 119.586 449.273 118.191 449.273C117.171 449.273 116.218 449.1 115.334 448.754C114.45 448.398 113.675 447.861 113.01 447.141C112.344 446.421 111.825 445.514 111.451 444.42C111.077 443.317 110.891 442.014 110.891 440.51ZM118.109 445.896C118.939 445.896 119.613 445.614 120.133 445.049C120.652 444.484 120.912 443.6 120.912 442.396C120.912 441.421 120.684 440.656 120.229 440.1C119.782 439.535 119.103 439.252 118.191 439.252C117.572 439.252 117.025 439.393 116.551 439.676C116.086 439.949 115.726 440.3 115.471 440.729C115.215 441.148 115.088 441.581 115.088 442.027C115.088 442.492 115.152 442.952 115.279 443.408C115.407 443.864 115.598 444.279 115.854 444.652C116.109 445.026 116.423 445.327 116.797 445.555C117.18 445.783 117.617 445.896 118.109 445.896ZM141.475 444.857H139.068V449H134.939V444.857H126.408V441.918L135.172 429.012H139.068V441.576H141.475V444.857ZM134.939 441.576V438.186C134.939 437.867 134.944 437.488 134.953 437.051C134.971 436.613 134.99 436.176 135.008 435.738C135.026 435.301 135.044 434.913 135.062 434.576C135.09 434.23 135.108 433.988 135.117 433.852H135.008C134.835 434.225 134.652 434.59 134.461 434.945C134.27 435.292 134.046 435.656 133.791 436.039L130.127 441.576H134.939ZM154.805 428.725C156.372 428.725 157.562 429.271 158.373 430.365C159.184 431.459 159.59 432.995 159.59 434.973C159.59 436.951 159.207 438.495 158.441 439.607C157.676 440.719 156.464 441.275 154.805 441.275C153.264 441.275 152.093 440.719 151.291 439.607C150.489 438.495 150.088 436.951 150.088 434.973C150.088 432.995 150.462 431.459 151.209 430.365C151.965 429.271 153.164 428.725 154.805 428.725ZM154.832 431.582C154.385 431.582 154.057 431.865 153.848 432.43C153.638 432.995 153.533 433.852 153.533 435C153.533 436.148 153.638 437.01 153.848 437.584C154.057 438.158 154.385 438.445 154.832 438.445C155.279 438.445 155.607 438.163 155.816 437.598C156.035 437.023 156.145 436.158 156.145 435C156.145 433.852 156.035 432.995 155.816 432.43C155.607 431.865 155.279 431.582 154.832 431.582ZM168.996 429.012L157.908 449H154.627L165.715 429.012H168.996ZM168.805 436.709C170.372 436.709 171.562 437.256 172.373 438.35C173.184 439.443 173.59 440.979 173.59 442.957C173.59 444.926 173.207 446.466 172.441 447.578C171.676 448.69 170.464 449.246 168.805 449.246C167.264 449.246 166.093 448.69 165.291 447.578C164.489 446.466 164.088 444.926 164.088 442.957C164.088 440.979 164.462 439.443 165.209 438.35C165.965 437.256 167.164 436.709 168.805 436.709ZM168.832 439.566C168.385 439.566 168.057 439.849 167.848 440.414C167.638 440.979 167.533 441.836 167.533 442.984C167.533 444.133 167.638 444.994 167.848 445.568C168.057 446.143 168.385 446.43 168.832 446.43C169.279 446.43 169.607 446.147 169.816 445.582C170.035 445.008 170.145 444.142 170.145 442.984C170.145 441.836 170.035 440.979 169.816 440.414C169.607 439.849 169.279 439.566 168.832 439.566Z" fill="url(#paint8_linear_4374_454)"/>
<path d="M244.119 428.592L247.449 431.208L226.25 457.088L213.63 441.669H207.032L191.211 461H197.872L210.357 445.684L223.046 461H229.451L251.165 434.141L254.238 436.566L258.211 421L244.119 428.592Z" fill="url(#paint9_linear_4374_454)"/>
</g>
<defs>
<filter id="filter0_b_4374_454" x="-19.5" y="384" width="315" height="113" filterUnits="userSpaceOnUse" color-interpolation-filters="sRGB">
<feFlood flood-opacity="0" result="BackgroundImageFix"/>
<feGaussianBlur in="BackgroundImageFix" stdDeviation="10"/>
<feComposite in2="SourceAlpha" operator="in" result="effect1_backgroundBlur_4374_454"/>
<feBlend mode="normal" in="SourceGraphic" in2="effect1_backgroundBlur_4374_454" result="shape"/>
</filter>
<linearGradient id="paint0_linear_4374_454" x1="247.463" y1="162.075" x2="290.336" y2="483.099" gradientUnits="userSpaceOnUse">
<stop stop-color="#00FFE1"/>
<stop offset="1" stop-color="#6E5DF6"/>
</linearGradient>
<radialGradient id="paint1_radial_4374_454" cx="0" cy="0" r="1" gradientUnits="userSpaceOnUse" gradientTransform="translate(408.779 210.522) rotate(-129.304) scale(101.657 95.5898)">
<stop offset="0.0955758" stop-color="#00AEFF"/>
<stop offset="0.773185" stop-color="#2253CE"/>
<stop offset="1" stop-color="#0736C4"/>
</radialGradient>
<radialGradient id="paint2_radial_4374_454" cx="0" cy="0" r="1" gradientUnits="userSpaceOnUse" gradientTransform="translate(250.84 282.801) rotate(51.84) scale(93.9483 91.1324)">
<stop stop-color="#FFB657"/>
<stop offset="0.633728" stop-color="#FF5F3D"/>
<stop offset="0.923392" stop-color="#C02B3C"/>
</radialGradient>
<linearGradient id="paint3_linear_4374_454" x1="258.937" y1="134.062" x2="272.382" y2="289.604" gradientUnits="userSpaceOnUse">
<stop offset="0.156162" stop-color="#0D91E1"/>
<stop offset="0.487484" stop-color="#52B471"/>
<stop offset="0.652394" stop-color="#98BD42"/>
<stop offset="0.937361" stop-color="#FFC800"/>
</linearGradient>
<linearGradient id="paint4_linear_4374_454" x1="270.687" y1="113.5" x2="278.029" y2="283.201" gradientUnits="userSpaceOnUse">
<stop stop-color="#3DCBFF"/>
<stop offset="0.246674" stop-color="#0588F7" stop-opacity="0"/>
</linearGradient>
<radialGradient id="paint5_radial_4374_454" cx="0" cy="0" r="1" gradientUnits="userSpaceOnUse" gradientTransform="translate(428.247 162.152) rotate(109.274) scale(225.525 270.172)">
<stop offset="0.0661714" stop-color="#8C48FF"/>
<stop offset="0.5" stop-color="#F2598A"/>
<stop offset="0.895833" stop-color="#FFB152"/>
</radialGradient>
<linearGradient id="paint6_linear_4374_454" x1="435.692" y1="168.407" x2="435.596" y2="214.636" gradientUnits="userSpaceOnUse">
<stop offset="0.0581535" stop-color="#F8ADFA"/>
<stop offset="0.708063" stop-color="#A86EDD" stop-opacity="0"/>
</linearGradient>
<linearGradient id="paint7_linear_4374_454" x1="275.5" y1="404" x2="261.159" y2="508.344" gradientUnits="userSpaceOnUse">
<stop offset="0.173941" stop-color="#6E5DF6"/>
<stop offset="0.804665" stop-color="#00FFE1"/>
</linearGradient>
<linearGradient id="paint8_linear_4374_454" x1="96.3256" y1="434.474" x2="97.2047" y2="461.61" gradientUnits="userSpaceOnUse">
<stop stop-color="#00FFE1"/>
<stop offset="1" stop-color="#6E5DF6"/>
</linearGradient>
<linearGradient id="paint9_linear_4374_454" x1="224.76" y1="436.399" x2="227.449" y2="467.209" gradientUnits="userSpaceOnUse">
<stop stop-color="#00FFE1"/>
<stop offset="1" stop-color="#6E5DF6"/>
</linearGradient>
</defs>
</svg>
