<svg width="36" height="36" viewBox="0 0 36 36" fill="none" xmlns="http://www.w3.org/2000/svg">
<path d="M2.237 2.84152C2.17226 2.88108 2.08953 2.96381 2.04996 3.02856C1.97803 3.14725 1.97803 3.24437 1.97803 17.9845C1.97803 32.7246 1.97803 32.8217 2.04996 32.9403C2.08953 33.0051 2.17226 33.0879 2.237 33.1274C2.3557 33.1994 2.45281 33.1994 17.9842 33.1994C33.5157 33.1994 33.6128 33.1994 33.7314 33.1274C34.084 32.9116 34.0768 32.3721 33.7171 32.1671L33.5768 32.0843H18.3367H3.09306V17.6427V3.19761L3.02112 3.05373C2.97796 2.9746 2.89524 2.87748 2.83049 2.84152C2.67582 2.7444 2.39527 2.748 2.237 2.84152Z" fill="url(#paint0_linear_4374_1414)"/>
<path d="M28.7752 3.38444C27.8976 3.49954 27.1315 3.61464 27.0775 3.63622C26.93 3.69737 26.7718 3.89519 26.743 4.05706C26.6963 4.33402 26.9085 4.64695 27.1783 4.69731C27.2502 4.71169 27.7178 4.66494 28.3256 4.5858C28.8903 4.51387 29.3651 4.45991 29.3867 4.46711C29.4083 4.4743 29.1709 4.86636 28.8544 5.34115C28.5415 5.81594 27.6782 7.11802 26.9336 8.23669L25.5848 10.2689L23.0166 11.7184C21.6031 12.5133 20.3657 13.2112 20.2686 13.2687L20.0851 13.373L19.8909 13.2579C19.783 13.1932 18.5529 12.463 17.1573 11.6357C14.715 10.1862 14.6143 10.1286 14.438 10.1286C14.3229 10.1286 14.2186 10.1502 14.1611 10.1898C14.0028 10.294 4.66163 20.1388 4.5897 20.2791C4.54294 20.369 4.52855 20.4517 4.54294 20.5668C4.5861 20.966 4.99974 21.1891 5.35224 20.9984C5.45655 20.9409 6.9133 19.4302 10.021 16.157L14.5387 11.3983L14.6503 11.4703C16.3192 12.4774 19.8693 14.5492 19.97 14.5744C20.0635 14.5924 20.1499 14.5888 20.2398 14.5564C20.4376 14.488 26.2575 11.1969 26.3725 11.089C26.4265 11.0386 27.3796 9.62149 28.4911 7.94171C29.6025 6.26195 30.5234 4.90233 30.5377 4.91671C30.5521 4.93111 30.7535 5.35914 30.9874 5.86271C31.2391 6.40223 31.4585 6.82667 31.5233 6.89861C31.6671 7.05327 31.8578 7.11083 32.0484 7.05327C32.3398 6.96695 32.5088 6.72236 32.4693 6.4418C32.4477 6.27994 31.1348 3.46717 31.0269 3.35207C30.9082 3.21898 30.7715 3.16503 30.5665 3.16863C30.4622 3.17222 29.6565 3.26934 28.7752 3.38444Z" fill="url(#paint1_linear_4374_1414)"/>
<path d="M29.3149 20.5201V30.3577H30.6098H31.9047V20.5201V10.6826H30.6098H29.3149V20.5201Z" fill="url(#paint2_linear_4374_1414)"/>
<path d="M24.6926 15.7615C24.6818 15.7867 24.6782 19.0778 24.6818 23.0739L24.6926 30.3397L25.9982 30.3505L27.3003 30.3577V23.038V15.7183H26.0054C25.0019 15.7183 24.7033 15.7291 24.6926 15.7615Z" fill="url(#paint3_linear_4374_1414)"/>
<path d="M20.0703 23.9733V30.3579L21.376 30.3507L22.6781 30.3399L22.6889 23.9626L22.6961 17.5889H21.3832H20.0703V23.9733Z" fill="url(#paint4_linear_4374_1414)"/>
<path d="M15.5024 24.4408V30.3578H16.7973H18.0922V24.4408V18.5239H16.7973H15.5024V24.4408Z" fill="url(#paint5_linear_4374_1414)"/>
<path d="M10.8697 25.9408L10.8805 30.3398L12.1862 30.3506L13.4883 30.3578V25.9516V21.5454H12.1754H10.8625L10.8697 25.9408Z" fill="url(#paint6_linear_4374_1414)"/>
<path d="M6.25854 26.5093V30.358L7.56423 30.3508L8.86627 30.34L8.87707 26.4985L8.88427 22.6606H7.57142H6.25854V26.5093Z" fill="url(#paint7_linear_4374_1414)"/>
<defs>
<linearGradient id="paint0_linear_4374_1414" x1="7.31359" y1="33.1994" x2="37.2585" y2="23.5583" gradientUnits="userSpaceOnUse">
<stop stop-color="#00FFE1"/>
<stop offset="1" stop-color="#6E5DF6"/>
</linearGradient>
<linearGradient id="paint1_linear_4374_1414" x1="18.5266" y1="10.0592" x2="19.8168" y2="23.8303" gradientUnits="userSpaceOnUse">
<stop stop-color="#00FFE1"/>
<stop offset="1" stop-color="#6E5DF6"/>
</linearGradient>
<linearGradient id="paint2_linear_4374_1414" x1="30.6117" y1="18.257" x2="38.2048" y2="25.0915" gradientUnits="userSpaceOnUse">
<stop stop-color="#00FFE1"/>
<stop offset="1" stop-color="#6E5DF6"/>
</linearGradient>
<linearGradient id="paint3_linear_4374_1414" x1="25.117" y1="30.3577" x2="27.8136" y2="30.21" gradientUnits="userSpaceOnUse">
<stop stop-color="#00FFE1"/>
<stop offset="1" stop-color="#6E5DF6"/>
</linearGradient>
<linearGradient id="paint4_linear_4374_1414" x1="21.3851" y1="22.5046" x2="26.0657" y2="29.0864" gradientUnits="userSpaceOnUse">
<stop stop-color="#00FFE1"/>
<stop offset="1" stop-color="#6E5DF6"/>
</linearGradient>
<linearGradient id="paint5_linear_4374_1414" x1="15.9341" y1="30.3578" x2="18.5957" y2="30.1794" gradientUnits="userSpaceOnUse">
<stop stop-color="#00FFE1"/>
<stop offset="1" stop-color="#6E5DF6"/>
</linearGradient>
<linearGradient id="paint6_linear_4374_1414" x1="11.3002" y1="30.3578" x2="13.9885" y2="30.1127" gradientUnits="userSpaceOnUse">
<stop stop-color="#00FFE1"/>
<stop offset="1" stop-color="#6E5DF6"/>
</linearGradient>
<linearGradient id="paint7_linear_4374_1414" x1="6.69617" y1="30.358" x2="9.37763" y2="30.0781" gradientUnits="userSpaceOnUse">
<stop stop-color="#00FFE1"/>
<stop offset="1" stop-color="#6E5DF6"/>
</linearGradient>
</defs>
</svg>
