<svg width="36" height="36" viewBox="0 0 36 36" fill="none" xmlns="http://www.w3.org/2000/svg">
<path d="M18.9358 3.97792C18.3058 4.04992 17.3338 4.24792 16.7758 4.40992C15.5878 4.75192 12.7798 6.17392 12.3658 6.62392C12.1138 6.89392 12.1318 6.98392 12.4738 7.41592L12.8698 7.90192L13.7698 7.28992C14.8678 6.53392 16.9738 5.68792 18.5038 5.39992C19.2058 5.25592 20.3578 5.20192 21.5638 5.27392C24.8218 5.43592 27.4138 6.58792 29.7898 8.90992C31.5358 10.6379 32.7058 12.6899 33.2998 15.0659C33.4798 15.7859 33.5338 15.8399 34.1098 15.8399C34.8658 15.8399 34.9018 15.6599 34.3618 13.9319C33.7138 11.8079 32.6518 10.0079 31.0858 8.35192C28.7098 5.83192 25.8658 4.39192 22.4998 3.97792C20.8258 3.76192 20.5738 3.76192 18.9358 3.97792Z" fill="url(#paint0_linear_4374_1427)"/>
<path d="M5.02202 7.16388C3.92402 8.13588 4.42802 9.91788 5.85002 10.1879C6.53402 10.3139 7.45202 9.89988 7.74002 9.35988C7.90202 9.07188 8.11803 8.99988 8.87403 8.99988C9.73803 8.99988 9.86403 9.05388 10.62 9.80988L11.448 10.6199L11.88 10.1699L12.312 9.71988L11.34 8.72988L10.368 7.73988H9.16203C8.04603 7.73988 7.90202 7.68588 7.41602 7.19988C6.67802 6.47988 5.81402 6.46188 5.02202 7.16388Z" fill="url(#paint1_linear_4374_1427)"/>
<path d="M19.2597 10.8001C19.2597 11.5021 19.2237 11.5561 18.4317 11.8801C17.4057 12.3301 17.2977 12.3301 16.7937 11.8441C16.4157 11.5021 16.3437 11.4841 15.9117 11.7181C15.6417 11.8441 15.1557 12.3121 14.7957 12.7441L14.1657 13.5181L14.6697 14.0401L15.1737 14.5801L14.8497 15.3361C14.4357 16.2721 14.1297 16.5601 13.4817 16.5601C13.0497 16.5601 12.9777 16.6501 12.8697 17.2801C12.7977 17.6761 12.7977 18.3241 12.8697 18.7201C12.9777 19.3501 13.0497 19.4401 13.4817 19.4401C14.1297 19.4401 14.4357 19.7281 14.8497 20.6641L15.1737 21.4201L14.6877 21.9421L14.1837 22.4641L14.5977 23.0401C15.0477 23.6341 16.0557 24.4801 16.3437 24.4801C16.4337 24.4801 16.6497 24.3181 16.8297 24.1201C17.2257 23.6701 17.4057 23.6701 18.4317 24.1201C19.2237 24.4441 19.2597 24.4981 19.2597 25.2001V25.9201H20.7897H22.3197V25.2001C22.3197 24.4981 22.3557 24.4441 23.1477 24.1201C24.1737 23.6701 24.3537 23.6701 24.7497 24.1201C24.9297 24.3181 25.1817 24.4801 25.3077 24.4801C25.6137 24.4801 26.5497 23.6881 27.0177 23.0221L27.3957 22.5001L26.9457 21.9601L26.4957 21.4381L26.8017 20.5921C27.1617 19.6741 27.4137 19.4401 28.0977 19.4401C28.6737 19.4401 28.7997 19.1701 28.7997 18.0001C28.7997 16.8301 28.6737 16.5601 28.0977 16.5601C27.4137 16.5601 27.1617 16.3261 26.8017 15.4081L26.4957 14.5621L26.9457 14.0401L27.3957 13.5001L27.0177 12.9781C26.5497 12.3121 25.6137 11.5201 25.3077 11.5201C25.1817 11.5201 24.9297 11.6821 24.7497 11.8801C24.3537 12.3301 24.1737 12.3301 23.1477 11.8801C22.3557 11.5561 22.3197 11.5021 22.3197 10.8001V10.0801H20.7897H19.2597V10.8001ZM22.6077 14.0221C25.3257 15.2461 26.0457 18.8641 23.9937 20.9701C23.1117 21.8881 22.1037 22.3201 20.8257 22.3201C18.3237 22.3201 16.4877 20.5021 16.4877 18.0001C16.4877 16.2361 17.4957 14.6521 19.0797 13.9681C19.9617 13.5901 21.7077 13.6081 22.6077 14.0221Z" fill="url(#paint2_linear_4374_1427)"/>
<path d="M20.1596 14.8321C20.1596 14.9761 19.9256 15.3361 19.6196 15.6241C19.2056 16.0381 19.0796 16.3441 19.0796 16.8661C19.0796 17.7841 19.4756 18.3061 20.3576 18.5761C21.1136 18.7921 21.4196 19.1521 21.1136 19.4581C20.8796 19.6921 20.3396 19.4761 20.3396 19.1521C20.3396 18.9901 20.1236 18.9001 19.7096 18.9001C19.1516 18.9001 19.0796 18.9541 19.0796 19.3681C19.0796 19.6381 19.2956 20.0521 19.6196 20.3761C19.9256 20.6641 20.1596 21.0241 20.1596 21.1681C20.1596 21.3301 20.3576 21.4201 20.7896 21.4201C21.2396 21.4201 21.4196 21.3481 21.4196 21.1321C21.4196 20.9881 21.6716 20.6461 21.9596 20.3941C22.4096 20.0341 22.4996 19.8181 22.4996 19.1881C22.4996 18.2161 22.1216 17.7121 21.2216 17.4241C20.4296 17.1901 20.1236 16.8121 20.5376 16.5421C20.9336 16.3081 21.0776 16.3441 21.1856 16.7401C21.2576 17.0101 21.4376 17.1001 21.8876 17.1001C22.4456 17.1001 22.4996 17.0461 22.4996 16.5781C22.4996 16.2181 22.3376 15.9121 21.9596 15.6061C21.6716 15.3541 21.4196 15.0121 21.4196 14.8681C21.4196 14.6521 21.2396 14.5801 20.7896 14.5801C20.3576 14.5801 20.1596 14.6701 20.1596 14.8321Z" fill="url(#paint3_linear_4374_1427)"/>
<path d="M1.60171 11.1418C0.647711 12.0958 0.97171 13.6258 2.23171 14.0398C2.96971 14.2738 3.99571 13.9318 4.31971 13.3378C4.64371 12.7258 5.12971 12.8878 5.83171 13.8598L6.47971 14.7598H8.36974H10.2597V14.1298V13.4998H8.74774H7.23571L6.58771 12.5998C5.99371 11.7898 5.86771 11.6998 5.23771 11.6998C4.75171 11.6998 4.44571 11.5918 4.28371 11.3758C3.65371 10.4758 2.39371 10.3678 1.60171 11.1418Z" fill="url(#paint4_linear_4374_1427)"/>
<path d="M10.6196 14.13C10.6196 14.724 10.6556 14.76 11.2496 14.76C11.8436 14.76 11.8796 14.724 11.8796 14.13C11.8796 13.536 11.8436 13.5 11.2496 13.5C10.6556 13.5 10.6196 13.536 10.6196 14.13Z" fill="url(#paint5_linear_4374_1427)"/>
<path d="M2.93398 16.56C1.88998 17.19 1.90798 18.81 2.93398 19.44C3.74398 19.944 4.39198 19.89 5.09398 19.26L5.72398 18.72H8.26198H10.8V18V17.28H8.26198H5.72398L5.09398 16.74C4.37398 16.11 3.74398 16.056 2.93398 16.56Z" fill="url(#paint6_linear_4374_1427)"/>
<path d="M33.6602 18.0002V19.2602H34.2902H34.9202V18.0002V16.7402H34.2902H33.6602V18.0002Z" fill="url(#paint7_linear_4374_1427)"/>
<path d="M33.4079 20.4658C33.3539 20.6458 33.2279 21.1498 33.1199 21.5998C32.9939 22.0498 32.5259 23.1298 32.0759 24.0118C30.6359 26.8198 28.0439 29.0158 24.8399 30.1858C23.6159 30.6178 23.2379 30.6718 20.8799 30.6718C18.3959 30.6898 18.1979 30.6718 16.7039 30.1318C15.8219 29.8258 14.5979 29.2138 13.9319 28.7998L12.7619 28.0258L12.2939 28.4938L11.8079 28.9618L12.2579 29.3218C12.9059 29.8798 15.2459 31.0678 16.5059 31.4818C20.0699 32.6878 24.6059 32.1838 27.9899 30.2038C29.8619 29.1058 32.3099 26.5678 33.2459 24.7498C33.9839 23.3278 34.7399 21.1498 34.7399 20.5018C34.7399 20.0338 33.5519 19.9978 33.4079 20.4658Z" fill="url(#paint8_linear_4374_1427)"/>
<path d="M5.83171 22.1397C5.12971 23.1117 4.64371 23.2737 4.31971 22.6617C3.99571 22.0677 2.96971 21.7257 2.23171 21.9597C0.97171 22.3737 0.647711 23.9037 1.60171 24.8577C2.32171 25.5777 3.18571 25.5777 4.01371 24.8397C4.46371 24.4437 4.82371 24.2997 5.29171 24.2997C5.86771 24.2997 6.01171 24.1917 6.58771 23.3997L7.23571 22.4997H8.74774H10.2597V21.8697V21.2397H8.36974H6.47971L5.83171 22.1397Z" fill="url(#paint9_linear_4374_1427)"/>
<path d="M10.6196 21.8702C10.6196 22.4642 10.6556 22.5002 11.2496 22.5002C11.8436 22.5002 11.8796 22.4642 11.8796 21.8702C11.8796 21.2762 11.8436 21.2402 11.2496 21.2402C10.6556 21.2402 10.6196 21.2762 10.6196 21.8702Z" fill="url(#paint10_linear_4374_1427)"/>
<path d="M10.53 25.5598C9.88203 26.2258 9.75603 26.2798 8.85603 26.2798C8.06403 26.2798 7.84804 26.2078 7.50604 25.8118C7.23604 25.5238 6.85804 25.3258 6.37204 25.2538C5.72404 25.1818 5.54404 25.2358 5.04004 25.6858C4.53604 26.1358 4.44604 26.3338 4.44604 26.9998C4.44604 27.6658 4.53604 27.8638 5.04004 28.3138C5.54404 28.7638 5.72404 28.8178 6.37204 28.7458C6.85804 28.6738 7.23604 28.4758 7.50604 28.1878C7.86604 27.7738 8.04603 27.7198 9.09003 27.7198H10.296L11.304 26.7478L12.33 25.7578L11.898 25.3078C11.646 25.0558 11.412 24.8398 11.34 24.8398C11.286 24.8398 10.908 25.1638 10.53 25.5598Z" fill="url(#paint11_linear_4374_1427)"/>
<defs>
<linearGradient id="paint0_linear_4374_1427" x1="15.9502" y1="15.8399" x2="33.455" y2="5.80084" gradientUnits="userSpaceOnUse">
<stop stop-color="#00FFE1"/>
<stop offset="1" stop-color="#6E5DF6"/>
</linearGradient>
<linearGradient id="paint1_linear_4374_1427" x1="5.74076" y1="10.6199" x2="11.6862" y2="7.00723" gradientUnits="userSpaceOnUse">
<stop stop-color="#00FFE1"/>
<stop offset="1" stop-color="#6E5DF6"/>
</linearGradient>
<linearGradient id="paint2_linear_4374_1427" x1="15.4797" y1="25.9201" x2="30.5442" y2="21.268" gradientUnits="userSpaceOnUse">
<stop stop-color="#00FFE1"/>
<stop offset="1" stop-color="#6E5DF6"/>
</linearGradient>
<linearGradient id="paint3_linear_4374_1427" x1="19.6496" y1="21.4201" x2="23.0994" y2="20.8922" gradientUnits="userSpaceOnUse">
<stop stop-color="#00FFE1"/>
<stop offset="1" stop-color="#6E5DF6"/>
</linearGradient>
<linearGradient id="paint4_linear_4374_1427" x1="2.58357" y1="14.7598" x2="9.07598" y2="10.334" gradientUnits="userSpaceOnUse">
<stop stop-color="#00FFE1"/>
<stop offset="1" stop-color="#6E5DF6"/>
</linearGradient>
<linearGradient id="paint5_linear_4374_1427" x1="10.8296" y1="14.76" x2="12.019" y2="14.396" gradientUnits="userSpaceOnUse">
<stop stop-color="#00FFE1"/>
<stop offset="1" stop-color="#6E5DF6"/>
</linearGradient>
<linearGradient id="paint6_linear_4374_1427" x1="3.59809" y1="19.7798" x2="9.34646" y2="15.5086" gradientUnits="userSpaceOnUse">
<stop stop-color="#00FFE1"/>
<stop offset="1" stop-color="#6E5DF6"/>
</linearGradient>
<linearGradient id="paint7_linear_4374_1427" x1="33.8702" y1="19.2602" x2="35.1411" y2="19.0657" gradientUnits="userSpaceOnUse">
<stop stop-color="#00FFE1"/>
<stop offset="1" stop-color="#6E5DF6"/>
</linearGradient>
<linearGradient id="paint8_linear_4374_1427" x1="15.6299" y1="32.1304" x2="33.2689" y2="21.813" gradientUnits="userSpaceOnUse">
<stop stop-color="#00FFE1"/>
<stop offset="1" stop-color="#6E5DF6"/>
</linearGradient>
<linearGradient id="paint9_linear_4374_1427" x1="2.58357" y1="25.3955" x2="9.0963" y2="20.9778" gradientUnits="userSpaceOnUse">
<stop stop-color="#00FFE1"/>
<stop offset="1" stop-color="#6E5DF6"/>
</linearGradient>
<linearGradient id="paint10_linear_4374_1427" x1="10.8296" y1="22.5002" x2="12.019" y2="22.1362" gradientUnits="userSpaceOnUse">
<stop stop-color="#00FFE1"/>
<stop offset="1" stop-color="#6E5DF6"/>
</linearGradient>
<linearGradient id="paint11_linear_4374_1427" x1="5.76004" y1="28.7722" x2="11.6731" y2="25.1443" gradientUnits="userSpaceOnUse">
<stop stop-color="#00FFE1"/>
<stop offset="1" stop-color="#6E5DF6"/>
</linearGradient>
</defs>
</svg>
