<svg width="41" height="35" viewBox="0 0 41 35" fill="none" xmlns="http://www.w3.org/2000/svg">
<g clip-path="url(#clip0_4374_1445)">
<path d="M21.3723 0.693907C20.2932 0.905131 20.036 2.36993 20.9866 2.92554C21.2575 3.08625 21.6799 3.12299 22.0059 3.01738C22.2906 2.92095 22.6075 2.59952 22.7269 2.28728C22.8968 1.83728 22.736 1.23115 22.3687 0.95105C22.0794 0.730642 21.6891 0.629621 21.3723 0.693907Z" fill="url(#paint0_linear_4374_1445)"/>
<path d="M14.8977 1.99329C14.8334 2.02543 14.7554 2.10808 14.7232 2.17696C14.6865 2.25502 14.6084 3.1091 14.5074 4.58308C14.3283 7.12696 14.3467 7.0489 13.9977 7.15451C13.9013 7.18666 13.5201 7.30604 13.1528 7.42084C12.4273 7.65043 11.7431 7.94431 11.1278 8.30247C10.6457 8.57798 10.563 8.60553 10.3793 8.52288C10.3013 8.49074 9.87423 8.14635 9.42882 7.75604C6.65076 5.33155 6.82066 5.46931 6.61862 5.46931C6.43494 5.46931 6.4028 5.49686 5.40637 6.4887C4.70382 7.18666 4.3778 7.54941 4.35943 7.63666C4.33648 7.7239 4.35943 7.82033 4.41454 7.92135C4.46046 8.00859 5.11709 8.78461 5.87474 9.65247C6.63239 10.5157 7.29821 11.2871 7.3579 11.3652C7.50025 11.558 7.48648 11.7371 7.29362 12.0586C6.84821 12.7932 6.4579 13.7162 6.18239 14.6621C6.04005 15.1535 5.98494 15.282 5.88392 15.3601C5.77372 15.4427 5.55331 15.4657 3.56964 15.6035C2.36199 15.6861 1.30586 15.7642 1.21862 15.7825C1.13597 15.7963 1.01658 15.856 0.956884 15.9157L0.84668 16.0259V17.4999V18.9739L0.956884 19.0841C1.01658 19.1438 1.1176 19.208 1.17729 19.2218C1.23239 19.2356 2.28852 19.3137 3.52372 19.3963C5.55331 19.5341 5.77372 19.557 5.88392 19.6397C5.98494 19.7177 6.04005 19.8417 6.1778 20.3285C6.44872 21.2698 6.84362 22.1927 7.29362 22.9412C7.48648 23.2626 7.50025 23.4463 7.3579 23.6346C7.3028 23.708 6.82984 24.2545 6.31097 24.8468C4.22168 27.2392 4.30433 27.1381 4.35943 27.3723C4.3778 27.4412 4.80484 27.905 5.40637 28.5065C6.32474 29.4295 6.43954 29.5305 6.57729 29.5305C6.65995 29.5305 6.77474 29.5075 6.82984 29.4754C6.92168 29.4295 8.7125 27.8866 9.80076 26.9177C10.2691 26.5045 10.4574 26.3943 10.6319 26.4402C10.6916 26.454 10.912 26.5688 11.1186 26.6927C11.812 27.106 12.6936 27.4596 13.9747 27.8407C14.3421 27.9509 14.3375 27.9279 14.4615 29.783C14.5258 30.6922 14.5946 31.7208 14.6222 32.0698C14.6451 32.4188 14.6911 32.7586 14.7232 32.8274C14.8242 33.0387 14.9436 33.0662 15.8298 33.0662H16.6426V28.254V23.4371L16.1513 23.4096C14.2043 23.2994 12.5329 22.3489 11.4768 20.7647C9.92015 18.4274 10.2278 15.3004 12.2069 13.3397C13.2997 12.256 14.5946 11.682 16.1513 11.5902L16.6426 11.5626V6.74584V1.93359H15.8298C15.265 1.93359 14.9758 1.95196 14.8977 1.99329Z" fill="url(#paint1_linear_4374_1445)"/>
<path d="M36.1719 2.21362C35.8137 2.2779 35.5107 2.5075 35.327 2.85648C35.1801 3.13658 35.1755 3.66464 35.3178 3.93097C35.6806 4.61056 36.5438 4.80801 37.1454 4.34423C37.6964 3.92637 37.7699 3.10444 37.3015 2.59933C36.9984 2.26872 36.6035 2.13556 36.1719 2.21362Z" fill="url(#paint2_linear_4374_1445)"/>
<path d="M27.9388 3.02191C27.8745 3.06324 27.227 3.68773 26.4924 4.39947L25.1607 5.70355L25.1378 4.9964C25.124 4.50508 25.0964 4.2663 25.0551 4.21579C25.0184 4.17447 24.6418 3.88059 24.2102 3.55916C23.4939 3.02191 23.425 2.98059 23.3837 3.06324C23.3561 3.10916 23.2138 3.26987 23.0714 3.41222L22.8051 3.67396L23.5123 4.20661L24.2194 4.73467V5.66681V6.59895L23.2459 7.56324C22.7087 8.0913 21.8454 8.94079 21.3265 9.45049L20.3852 10.3827L18.9847 10.3918L17.5842 10.4056L17.5704 10.851L17.5566 11.301H19.1454H20.7342L21.2714 10.7959C21.5653 10.5204 23.2873 8.84436 25.0918 7.0811L28.375 3.86681L31.3367 3.86222H34.2985V3.40304V2.94385H31.176C28.3107 2.94385 28.0398 2.94844 27.9388 3.02191Z" fill="url(#paint3_linear_4374_1445)"/>
<path d="M31.5106 7.18679C30.9137 7.3475 30.5188 7.99036 30.6474 8.57352C30.7897 9.21179 31.304 9.60209 31.9285 9.5424C32.8974 9.45516 33.3703 8.34852 32.7642 7.58628C32.4887 7.2373 31.9469 7.06281 31.5106 7.18679Z" fill="url(#paint4_linear_4374_1445)"/>
<path d="M29.0728 7.89843L28.4391 7.92598L27.7411 8.63771C27.3554 9.02802 26.4325 9.97853 25.684 10.7499C24.9401 11.5214 23.8978 12.5959 23.3743 13.1377L22.4146 14.1249L19.9993 14.1479L17.584 14.1709V14.6301V15.0892L20.1095 15.103C22.4467 15.1122 22.6442 15.1076 22.7774 15.0341C22.8554 14.9882 23.6819 14.1663 24.6095 13.2066C25.537 12.2469 26.3957 11.3607 26.5151 11.2367L26.7355 11.0117L27.1212 11.1632C27.3325 11.2459 28.3243 11.6408 29.3299 12.0403L31.1575 12.7704H33.9952H36.8284V12.3112V11.852H34.1054H31.387L29.4677 11.0897C28.4115 10.6673 27.5299 10.3091 27.5069 10.2908C27.4886 10.2678 27.7825 9.93261 28.1682 9.53771L28.8707 8.82139H29.2886H29.7064V8.33924C29.7064 8.07292 29.7064 7.86169 29.7064 7.86628C29.7064 7.87088 29.4217 7.88465 29.0728 7.89843Z" fill="url(#paint5_linear_4374_1445)"/>
<path d="M38.5276 11.1818C37.747 11.471 37.5128 12.4767 38.0684 13.1333C38.3806 13.5052 39.0327 13.62 39.501 13.3858C39.9005 13.1884 40.1531 12.7843 40.1531 12.3435C40.1531 11.8751 39.974 11.5491 39.5607 11.2782C39.4046 11.1726 39.3082 11.145 39.0373 11.1312C38.8214 11.1221 38.6424 11.1404 38.5276 11.1818Z" fill="url(#paint6_linear_4374_1445)"/>
<path d="M15.8253 12.5457C14.7324 12.6743 13.7773 13.1335 12.96 13.9095C12.51 14.3411 12.1977 14.759 11.936 15.2824C11.137 16.8896 11.261 18.7631 12.2574 20.2784C12.5146 20.6687 13.1482 21.3115 13.5431 21.5824C13.9794 21.8855 14.5396 22.1518 15.0493 22.2988C15.4579 22.4136 16.4452 22.5375 16.5738 22.487C16.6334 22.4641 16.6426 21.8717 16.6334 17.4911L16.6197 12.5182L16.3901 12.5136C16.2661 12.509 16.009 12.5228 15.8253 12.5457Z" fill="url(#paint7_linear_4374_1445)"/>
<path d="M26.308 14.4188C26.2345 14.4647 25.6009 15.0755 24.9075 15.7734L23.6447 17.0408H20.6049H17.5605V17.4999V17.9591H25.7937H34.0223V17.4999V17.0408H29.4993H24.9764L25.8488 16.1683L26.7213 15.2959H30.2248C33.9901 15.2959 33.9396 15.3005 34.1095 15.0617C34.2243 14.8918 34.2014 14.676 34.0498 14.5061L33.9167 14.3545L30.1789 14.3408C26.5743 14.3316 26.4412 14.3362 26.308 14.4188Z" fill="url(#paint8_linear_4374_1445)"/>
<path d="M35.6939 16.3706C35.1383 16.5681 34.7985 17.2523 34.9638 17.8446C35.0373 18.1063 35.3725 18.4921 35.6296 18.6069C35.8868 18.7262 36.346 18.7217 36.6169 18.5977C37.0623 18.3956 37.324 17.9916 37.3194 17.5002C37.3194 16.9997 37.0623 16.6048 36.5985 16.3936C36.3781 16.2926 35.9373 16.2834 35.6939 16.3706Z" fill="url(#paint9_linear_4374_1445)"/>
<path d="M17.5794 19.9475C17.5656 19.9842 17.561 20.1954 17.5702 20.4204L17.584 20.8291L19.9947 20.8429L22.4008 20.8521L22.635 21.0954C23.0069 21.4812 25.4544 24.0113 26.9743 25.5725C27.7457 26.3669 28.4069 27.0327 28.4529 27.0556C28.4942 27.0786 28.7927 27.097 29.1187 27.097H29.7064V26.6378V26.1786H29.2886H28.8707L28.1682 25.4623C27.7825 25.072 27.484 24.7322 27.5069 24.7138C27.5299 24.6908 28.4115 24.3327 29.4677 23.9102L31.387 23.148H34.1054H36.8238L36.8284 22.6888V22.2296H33.9998H31.1712L29.3115 22.9689C28.2921 23.373 27.2957 23.7679 27.0983 23.8505L26.7401 23.9929L26.5197 23.7679C24.7886 21.9817 23.2365 20.3745 23.0942 20.2138C22.7865 19.874 22.9059 19.8878 20.1095 19.8878C18.0661 19.8878 17.5978 19.897 17.5794 19.9475Z" fill="url(#paint10_linear_4374_1445)"/>
<path d="M38.4764 21.5823C38.008 21.7935 37.7646 22.1747 37.7646 22.6935C37.7646 22.9415 37.7876 23.0471 37.8932 23.2445C38.1274 23.6945 38.5453 23.915 39.0733 23.869C39.684 23.8231 40.1019 23.3869 40.1432 22.7486C40.1662 22.4088 40.1065 22.2114 39.8999 21.9405C39.5876 21.5318 38.9402 21.3711 38.4764 21.5823Z" fill="url(#paint11_linear_4374_1445)"/>
<path d="M17.5704 24.1446L17.5842 24.5946L18.9847 24.6084L20.3806 24.6176L21.2347 25.4579C22.2403 26.4497 23.8566 28.0339 24.0725 28.2359L24.2194 28.3783V29.3242V30.2655L23.5123 30.7936L22.8051 31.3263L23.0714 31.588C23.2138 31.7303 23.3561 31.891 23.3837 31.937C23.425 32.0196 23.4939 31.9783 24.2102 31.441C24.6418 31.1196 25.0184 30.8257 25.0551 30.7844C25.0964 30.7339 25.124 30.4951 25.1378 30.0084L25.1607 29.3058L25.5969 29.7237C25.8357 29.9579 26.4281 30.5273 26.9056 31.0002C27.3878 31.4686 27.8378 31.9002 27.9112 31.9553L28.0444 32.0564H31.1714H34.2985V31.5972V31.138H31.3367H28.375L27.6862 30.4584C27.3097 30.0865 26.6072 29.3977 26.125 28.9293C25.6475 28.4655 24.3939 27.2441 23.3469 26.2201C22.3 25.1961 21.2806 24.2135 21.0878 24.0298L20.7342 23.6992H19.1454H17.5566L17.5704 24.1446Z" fill="url(#paint12_linear_4374_1445)"/>
<path d="M31.405 25.5128C30.7897 25.7424 30.4683 26.4771 30.7071 27.1062C30.8035 27.3496 31.1157 27.6618 31.3729 27.772C31.4647 27.8134 31.6713 27.8455 31.8229 27.8455C32.5346 27.8547 33.0856 27.2577 33.0213 26.5506C32.9846 26.119 32.7458 25.7654 32.3693 25.5725C32.1305 25.4486 31.6576 25.421 31.405 25.5128Z" fill="url(#paint13_linear_4374_1445)"/>
<path d="M35.9287 30.4951C35.6715 30.6145 35.4465 30.8257 35.3179 31.0691C35.1756 31.3308 35.1802 31.8635 35.3179 32.1298C35.7312 32.9058 36.7093 33.0436 37.3016 32.4007C37.4853 32.2033 37.6276 31.8497 37.6276 31.5971C37.6276 31.2022 37.3659 30.7706 36.9985 30.5548C36.7093 30.3849 36.2225 30.3573 35.9287 30.4951Z" fill="url(#paint14_linear_4374_1445)"/>
<path d="M21.1697 31.9875C20.5222 32.217 20.2008 33.0298 20.513 33.6451C20.6462 33.9068 20.8942 34.1456 21.1329 34.2466C21.2202 34.2834 21.4268 34.3155 21.5875 34.3155C22.6207 34.3201 23.1809 33.117 22.5013 32.3456C22.1661 31.9645 21.6335 31.8221 21.1697 31.9875Z" fill="url(#paint15_linear_4374_1445)"/>
</g>
<defs>
<linearGradient id="paint0_linear_4374_1445" x1="20.7986" y1="3.07712" x2="23.0607" y2="2.38691" gradientUnits="userSpaceOnUse">
<stop stop-color="#00FFE1"/>
<stop offset="1" stop-color="#6E5DF6"/>
</linearGradient>
<linearGradient id="paint1_linear_4374_1445" x1="3.47933" y1="33.0662" x2="19.4024" y2="30.5938" gradientUnits="userSpaceOnUse">
<stop stop-color="#00FFE1"/>
<stop offset="1" stop-color="#6E5DF6"/>
</linearGradient>
<linearGradient id="paint2_linear_4374_1445" x1="35.6133" y1="4.59653" x2="37.8769" y2="3.9061" gradientUnits="userSpaceOnUse">
<stop stop-color="#00FFE1"/>
<stop offset="1" stop-color="#6E5DF6"/>
</linearGradient>
<linearGradient id="paint3_linear_4374_1445" x1="20.3469" y1="11.301" x2="32.909" y2="3.59966" gradientUnits="userSpaceOnUse">
<stop stop-color="#00FFE1"/>
<stop offset="1" stop-color="#6E5DF6"/>
</linearGradient>
<linearGradient id="paint4_linear_4374_1445" x1="31.0249" y1="9.5484" x2="33.2993" y2="8.84954" gradientUnits="userSpaceOnUse">
<stop stop-color="#00FFE1"/>
<stop offset="1" stop-color="#6E5DF6"/>
</linearGradient>
<linearGradient id="paint5_linear_4374_1445" x1="20.7914" y1="15.1065" x2="32.7476" y2="5.38116" gradientUnits="userSpaceOnUse">
<stop stop-color="#00FFE1"/>
<stop offset="1" stop-color="#6E5DF6"/>
</linearGradient>
<linearGradient id="paint6_linear_4374_1445" x1="38.1619" y1="13.5074" x2="40.4156" y2="12.8146" gradientUnits="userSpaceOnUse">
<stop stop-color="#00FFE1"/>
<stop offset="1" stop-color="#6E5DF6"/>
</linearGradient>
<linearGradient id="paint7_linear_4374_1445" x1="12.2837" y1="22.4986" x2="17.5413" y2="21.657" gradientUnits="userSpaceOnUse">
<stop stop-color="#00FFE1"/>
<stop offset="1" stop-color="#6E5DF6"/>
</linearGradient>
<linearGradient id="paint8_linear_4374_1445" x1="20.3308" y1="17.9591" x2="26.1034" y2="9.85174" gradientUnits="userSpaceOnUse">
<stop stop-color="#00FFE1"/>
<stop offset="1" stop-color="#6E5DF6"/>
</linearGradient>
<linearGradient id="paint9_linear_4374_1445" x1="35.3215" y1="18.6936" x2="37.5822" y2="17.9974" gradientUnits="userSpaceOnUse">
<stop stop-color="#00FFE1"/>
<stop offset="1" stop-color="#6E5DF6"/>
</linearGradient>
<linearGradient id="paint10_linear_4374_1445" x1="20.7759" y1="27.097" x2="32.6935" y2="17.3519" gradientUnits="userSpaceOnUse">
<stop stop-color="#00FFE1"/>
<stop offset="1" stop-color="#6E5DF6"/>
</linearGradient>
<linearGradient id="paint11_linear_4374_1445" x1="38.1618" y1="23.875" x2="40.4119" y2="23.1872" gradientUnits="userSpaceOnUse">
<stop stop-color="#00FFE1"/>
<stop offset="1" stop-color="#6E5DF6"/>
</linearGradient>
<linearGradient id="paint12_linear_4374_1445" x1="20.3469" y1="32.0564" x2="32.909" y2="24.355" gradientUnits="userSpaceOnUse">
<stop stop-color="#00FFE1"/>
<stop offset="1" stop-color="#6E5DF6"/>
</linearGradient>
<linearGradient id="paint13_linear_4374_1445" x1="31.0277" y1="27.8456" x2="33.2899" y2="27.15" gradientUnits="userSpaceOnUse">
<stop stop-color="#00FFE1"/>
<stop offset="1" stop-color="#6E5DF6"/>
</linearGradient>
<linearGradient id="paint14_linear_4374_1445" x1="35.6153" y1="32.8083" x2="37.8925" y2="32.1075" gradientUnits="userSpaceOnUse">
<stop stop-color="#00FFE1"/>
<stop offset="1" stop-color="#6E5DF6"/>
</linearGradient>
<linearGradient id="paint15_linear_4374_1445" x1="20.7936" y1="34.3155" x2="23.0634" y2="33.6179" gradientUnits="userSpaceOnUse">
<stop stop-color="#00FFE1"/>
<stop offset="1" stop-color="#6E5DF6"/>
</linearGradient>
<clipPath id="clip0_4374_1445">
<rect width="41" height="35" fill="white"/>
</clipPath>
</defs>
</svg>
