<svg width="36" height="36" viewBox="0 0 36 36" fill="none" xmlns="http://www.w3.org/2000/svg">
<path d="M11.9714 3.25204C11.4804 3.4125 11.0508 3.79005 10.8336 4.26199C10.7251 4.49324 10.7062 4.59235 10.7109 4.97934C10.7109 5.36161 10.7298 5.47016 10.8336 5.69196C11.0603 6.19222 11.504 6.56505 12.028 6.70192C12.3821 6.79159 12.5709 6.79159 12.925 6.70192L13.2036 6.6264L13.6426 7.06531L14.0816 7.50421V9.79316V12.082L13.7889 12.2944C13.3971 12.5776 12.5992 13.3704 12.3113 13.7668L12.08 14.0878H9.78563H7.49597L7.05692 13.6488L6.61788 13.21L6.69814 12.908C6.90586 12.0962 6.50458 11.2467 5.73507 10.8692C5.4471 10.7276 5.38573 10.7134 4.97029 10.7134C4.58318 10.7134 4.48403 10.7323 4.25271 10.8408C3.87504 11.0155 3.53514 11.3458 3.35102 11.7234C3.21411 12.0065 3.19995 12.0726 3.19995 12.4832C3.19995 12.8985 3.21411 12.9599 3.35574 13.2477C3.73342 14.017 4.58318 14.4181 5.39045 14.2105L5.69258 14.135L6.193 14.6211C6.46681 14.8948 6.78783 15.1638 6.90585 15.2252L7.1183 15.3384L9.25683 15.3526C10.4276 15.3573 11.3907 15.3809 11.3907 15.3951C11.3907 15.4092 11.3293 15.6168 11.2538 15.8528C11.1264 16.2398 10.9941 16.8628 10.9564 17.2168L10.9422 17.3442L8.80363 17.3489H6.66981L6.46681 17.0516C5.65481 15.8481 3.94114 15.9756 3.32742 17.2876C3.21883 17.5188 3.19995 17.6179 3.19995 18.0049C3.19995 18.3919 3.21883 18.491 3.32742 18.7222C3.72397 19.567 4.62094 19.9776 5.4943 19.7039C5.88614 19.5812 6.22132 19.3263 6.46681 18.9582L6.66509 18.6608H8.80363H10.9375L11.0177 19.147C11.065 19.416 11.1594 19.8124 11.2255 20.0342C11.2916 20.256 11.3624 20.4826 11.3765 20.5392L11.4001 20.643L9.26155 20.6572L7.1183 20.6713L6.90585 20.7846C6.78783 20.846 6.46681 21.115 6.193 21.3887L5.69258 21.8748L5.39045 21.7992C4.58318 21.5916 3.73342 21.9928 3.35574 22.762C3.21411 23.05 3.19995 23.1112 3.19995 23.5266C3.19995 23.9136 3.21883 24.0127 3.32742 24.244C3.50209 24.6215 3.83255 24.9612 4.21022 25.1453C4.49348 25.2822 4.55957 25.2964 4.97029 25.2964C5.38573 25.2964 5.4471 25.2822 5.73507 25.1406C6.49986 24.7631 6.90586 23.9088 6.69814 23.1018L6.61788 22.7998L7.05692 22.3609L7.49597 21.922L9.80923 21.9267H12.1224L12.3585 22.2571C12.6323 22.644 13.4301 23.4275 13.8125 23.6964L14.0816 23.8805V26.1931V28.5056L13.6426 28.9444L13.2036 29.3833L12.9014 29.3032C12.0894 29.0955 11.2349 29.5013 10.862 30.2659C10.7204 30.5538 10.7062 30.6198 10.7062 31.0304C10.7062 31.4457 10.7204 31.5071 10.8572 31.7903C11.0414 32.1678 11.3812 32.4981 11.7589 32.6728C11.9903 32.7813 12.0894 32.8002 12.4765 32.8002C12.892 32.8002 12.9533 32.786 13.2413 32.6444C14.0108 32.2669 14.4121 31.4174 14.2044 30.6104L14.1288 30.3084L14.6198 29.8034C15.3893 29.0152 15.328 29.2701 15.3563 26.7358C15.3704 25.556 15.394 24.5932 15.4176 24.5979C15.4365 24.6026 15.6536 24.6734 15.9039 24.7489C16.1541 24.8292 16.579 24.9283 16.8433 24.9707C17.2635 25.0415 17.3343 25.0651 17.3579 25.15C17.3721 25.2067 17.3816 26.1695 17.3721 27.2974L17.3627 29.3456L17.1832 29.4447C16.7206 29.7043 16.4137 30.0865 16.2721 30.5774C16.0455 31.3749 16.4609 32.2622 17.2352 32.6444C17.5232 32.786 17.5845 32.8002 18 32.8002C18.4154 32.8002 18.4768 32.786 18.7648 32.6444C20.1007 31.9884 20.1291 30.1809 18.8167 29.4447L18.6372 29.3456L18.6278 27.2974C18.6184 26.1695 18.6278 25.2067 18.642 25.15C18.6656 25.0651 18.7364 25.0415 19.1566 24.9707C19.4209 24.9283 19.8411 24.8292 20.0819 24.7536C20.3274 24.6781 20.5492 24.612 20.5728 24.6026C20.6059 24.5932 20.6295 25.3388 20.6436 26.7358C20.672 29.2701 20.6106 29.0152 21.3801 29.8034L21.8711 30.3084L21.7956 30.6104C21.5878 31.4174 21.9891 32.2669 22.7586 32.6444C23.0466 32.786 23.108 32.8002 23.5234 32.8002C23.9105 32.8002 24.0096 32.7813 24.241 32.6728C24.6187 32.4981 24.9585 32.1678 25.1427 31.7903C25.2796 31.5071 25.2937 31.4457 25.2937 31.0304C25.2937 30.6198 25.2796 30.5538 25.138 30.2659C24.765 29.5013 23.9105 29.0955 23.0985 29.3032L22.7964 29.3833L22.3573 28.9444L21.9183 28.5056V26.1931V23.8805L22.1874 23.6964C22.5698 23.4275 23.3676 22.644 23.6414 22.2571L23.8775 21.9267H26.1907L28.504 21.922L28.943 22.3609L29.382 22.7998L29.3065 23.0782C29.2168 23.4322 29.2168 23.621 29.3065 23.9749C29.4434 24.4988 29.8164 24.9377 30.3168 25.1736C30.5434 25.2775 30.6472 25.2964 31.0296 25.2964C31.4404 25.2964 31.5064 25.2822 31.7897 25.1453C32.1674 24.9612 32.4978 24.6215 32.6725 24.244C32.7811 24.0127 32.8 23.9136 32.8 23.5266C32.8 23.1112 32.7858 23.05 32.6442 22.762C32.2665 21.9928 31.4168 21.5916 30.6095 21.7992L30.3073 21.8748L29.8069 21.3887C29.5331 21.115 29.2121 20.846 29.094 20.7846L28.8816 20.6713L26.7478 20.6572C25.5723 20.6524 24.6092 20.6241 24.6092 20.6052C24.6092 20.5816 24.6753 20.3646 24.7508 20.1239C24.8311 19.8785 24.9302 19.4443 24.9774 19.1612C25.0624 18.6515 25.0672 18.642 25.1899 18.6468C25.2607 18.6515 26.2237 18.6562 27.3379 18.6608L29.3537 18.6703L29.5425 18.9629C30.3215 20.1664 32.0635 20.0295 32.6725 18.7222C32.7811 18.491 32.8 18.3919 32.8 18.0049C32.8 17.6179 32.7811 17.5188 32.6725 17.2876C32.5261 16.9713 32.2193 16.6268 31.9408 16.4616C31.1335 15.9897 30.1044 16.2256 29.5567 17.0091C29.4623 17.146 29.3773 17.2781 29.3679 17.3017C29.3584 17.33 28.4709 17.3442 27.2057 17.3442L25.0577 17.3489L25.0436 17.2168C25.0058 16.8675 24.8736 16.2445 24.7461 15.8528C24.6706 15.6168 24.6092 15.4092 24.6092 15.3951C24.6092 15.3809 25.5723 15.3573 26.7478 15.3526L28.8816 15.3384L29.094 15.2252C29.2121 15.1638 29.5331 14.8948 29.8069 14.6211L30.3073 14.135L30.6095 14.2105C31.4168 14.4181 32.2665 14.017 32.6442 13.2477C32.7858 12.9599 32.8 12.8985 32.8 12.4832C32.8 12.0726 32.7858 12.0065 32.6489 11.7234C32.4648 11.3458 32.1248 11.0155 31.7472 10.8408C31.5159 10.7323 31.4168 10.7134 31.0296 10.7134C30.6425 10.7134 30.5434 10.7323 30.3168 10.8361C29.8164 11.0721 29.4434 11.511 29.3065 12.0348C29.2168 12.3888 29.2168 12.5776 29.3065 12.9316L29.382 13.21L28.943 13.6488L28.504 14.0878H26.2143H23.92L23.6886 13.7668C23.4007 13.3704 22.6028 12.5776 22.211 12.2944L21.9183 12.082V9.79316V7.50421L22.3573 7.06531L22.7964 6.6264L23.0749 6.70192C23.429 6.79159 23.6178 6.79159 23.9719 6.70192C24.4959 6.56505 24.9396 6.19222 25.1663 5.69196C25.2701 5.47016 25.289 5.35689 25.289 4.97934C25.2937 4.56403 25.2796 4.50268 25.1427 4.21952C24.9585 3.84196 24.6187 3.5116 24.241 3.33699C24.0096 3.22844 23.9105 3.20956 23.5234 3.20956C23.108 3.20956 23.0466 3.22372 22.7586 3.3653C21.9891 3.74285 21.5878 4.59235 21.7956 5.39936L21.8711 5.7014L21.3801 6.20638C21.111 6.48011 20.842 6.80103 20.7806 6.91901L20.6672 7.12666L20.6531 9.26452C20.6436 10.9824 20.6295 11.4024 20.5776 11.3836C20.148 11.2184 19.4776 11.0532 18.7931 10.9494L18.6184 10.9211L18.6278 8.7926L18.6372 6.66416L18.8167 6.56505C19.2793 6.30548 19.5862 5.92322 19.7278 5.4324C19.9544 4.63482 19.539 3.74757 18.7648 3.3653C18.4768 3.22372 18.4154 3.20956 18 3.20956C17.5845 3.20956 17.5232 3.22372 17.2352 3.3653C15.8992 4.0213 15.8708 5.82883 17.1832 6.56505L17.3627 6.66416L17.3721 8.7926L17.3816 10.9211L17.2068 10.9494C16.5224 11.0532 15.852 11.2184 15.4224 11.3836C15.3704 11.4024 15.3563 10.9824 15.3468 9.26452L15.3327 7.12666L15.2193 6.91901C15.158 6.80103 14.8889 6.48011 14.6198 6.20638L14.1288 5.7014L14.2044 5.39936C14.4121 4.59707 14.0108 3.74285 13.2555 3.37002C13.01 3.25204 12.8825 3.219 12.5615 3.20484C12.3066 3.19068 12.0988 3.20956 11.9714 3.25204ZM12.7125 4.531C13.1375 4.74808 13.0288 5.3852 12.5568 5.47488C12.3491 5.51735 12.1272 5.40408 12.028 5.21531C11.9336 5.03125 11.9384 4.88967 12.0516 4.70561C12.198 4.46492 12.4529 4.39885 12.7125 4.531ZM18.236 4.531C18.3871 4.61123 18.5192 4.81888 18.5192 4.97934C18.5192 5.22947 18.2502 5.49847 18 5.49847C17.7497 5.49847 17.4807 5.22947 17.4807 4.97934C17.4807 4.8236 17.6128 4.61123 17.7544 4.53572C17.9197 4.44132 18.066 4.44132 18.236 4.531ZM23.7312 4.5074C23.8728 4.55931 24.0427 4.81416 24.0427 4.9699C24.0427 5.26722 23.7406 5.53151 23.4573 5.4796C23.2354 5.43712 23.108 5.32857 23.0466 5.12092C22.9192 4.70089 23.3157 4.34694 23.7312 4.5074ZM5.20633 12.0348C5.63121 12.252 5.52263 12.8891 5.05054 12.9788C4.52652 13.0778 4.23855 12.37 4.68231 12.0726C4.87115 11.9452 5.0175 11.9357 5.20633 12.0348ZM31.3176 12.0726C31.53 12.2142 31.6008 12.4643 31.4876 12.6956C31.2845 13.1203 30.685 13.0731 30.5528 12.6248C30.482 12.3888 30.5623 12.1764 30.7652 12.0537C30.9588 11.9357 31.124 11.9404 31.3176 12.0726ZM19.4162 12.3558C21.6115 12.9457 23.2118 14.6164 23.6933 16.8344C23.7359 17.0232 23.7784 17.4432 23.7925 17.7689C23.9105 20.6383 21.9088 23.1396 19.048 23.7012C18.5004 23.805 17.4996 23.805 16.952 23.7012C14.0911 23.1396 12.0894 20.6383 12.2074 17.7689C12.2216 17.4432 12.264 17.0232 12.3066 16.8344C12.7881 14.6211 14.4263 12.9032 16.5837 12.3652C17.2116 12.2095 17.221 12.2048 18.1416 12.2236C18.845 12.2378 19.0338 12.2567 19.4162 12.3558ZM5.23466 17.5754C5.43293 17.6981 5.51791 17.9436 5.44238 18.1748C5.38101 18.3588 5.15912 18.524 4.97973 18.524C4.72008 18.524 4.45099 18.2597 4.45099 18.0049C4.45099 17.8492 4.58318 17.6368 4.7248 17.5612C4.89947 17.4621 5.05998 17.4668 5.23466 17.5754ZM31.2656 17.5565C31.4168 17.6368 31.5489 17.8444 31.5489 18.0049C31.5489 18.2597 31.2798 18.524 31.0202 18.524C30.8408 18.524 30.6189 18.3588 30.5576 18.1748C30.482 17.9436 30.567 17.6981 30.7652 17.5754C30.9447 17.4668 31.0816 17.4621 31.2656 17.5565ZM5.28186 23.1254C5.44237 23.2292 5.52263 23.5266 5.44238 23.72C5.37156 23.89 5.14496 24.0457 4.96557 24.0457C4.76729 24.0457 4.52652 23.8569 4.47931 23.6588C4.36129 23.1868 4.86642 22.8517 5.28186 23.1254ZM31.294 23.0971C31.6103 23.2906 31.6244 23.7342 31.3176 23.9372C31.124 24.0693 30.9588 24.074 30.7652 23.956C30.4348 23.7531 30.4489 23.2623 30.7936 23.0924C31.006 22.9839 31.1146 22.9886 31.294 23.0971ZM12.7881 30.6292C12.8495 30.667 12.925 30.785 12.9533 30.8888C13.1185 31.441 12.3868 31.795 12.0658 31.3183C11.9384 31.1296 11.9289 30.9832 12.028 30.7944C12.1696 30.5255 12.5143 30.45 12.7881 30.6292ZM18.236 30.5821C18.3871 30.6623 18.5192 30.87 18.5192 31.0304C18.5192 31.1909 18.3871 31.3985 18.236 31.4788C18.1604 31.5165 18.0566 31.5496 18 31.5496C17.8395 31.5496 17.6317 31.4174 17.5515 31.2664C17.4618 31.0918 17.4618 30.9691 17.5515 30.7944C17.6836 30.5396 17.9764 30.45 18.236 30.5821ZM23.7595 30.5821C23.9152 30.6623 24.0427 30.87 24.0427 31.0446C24.0427 31.106 23.9955 31.2286 23.9341 31.3183C23.717 31.644 23.2354 31.6015 23.0655 31.2428C22.9947 31.0918 22.99 31.054 23.0513 30.8747C23.1032 30.7284 23.1646 30.6528 23.2874 30.5963C23.4904 30.4924 23.5848 30.4924 23.7595 30.5821Z" fill="url(#paint0_linear_4374_1466)"/>
<path d="M16.3709 14.2766C16.3379 14.3333 13.9868 21.2236 13.9868 21.2708C13.9868 21.2897 14.0199 21.3369 14.0623 21.3746C14.1615 21.4784 15.1293 21.4831 15.2095 21.384C15.2426 21.3463 15.4125 20.8743 15.5919 20.3363C15.7713 19.7983 15.946 19.3405 15.9791 19.3169C16.0121 19.2981 16.4936 19.2792 17.0412 19.2792C18.0327 19.2792 18.0468 19.2792 18.1129 19.383C18.1507 19.4444 18.3206 19.9021 18.4906 20.4071C18.6652 20.9121 18.8257 21.351 18.854 21.3887C18.9155 21.4595 19.9163 21.4784 20.0248 21.4076C20.0579 21.384 20.0862 21.318 20.0862 21.2566C20.0815 21.1197 17.7824 14.3805 17.7069 14.2908C17.6455 14.2153 16.4181 14.2011 16.3709 14.2766ZM17.4425 17.1554C17.5889 17.5849 17.7116 17.9813 17.7116 18.038C17.7163 18.1985 17.5794 18.2409 17.0129 18.2409C16.555 18.2409 16.4747 18.2268 16.3992 18.1513C16.3047 18.0569 16.3095 18.0474 16.5691 17.264C16.7155 16.8298 16.8524 16.4428 16.8807 16.4097C16.9091 16.3767 16.9846 16.3532 17.0507 16.3625C17.1639 16.3767 17.1923 16.4333 17.4425 17.1554Z" fill="url(#paint1_linear_4374_1466)"/>
<path d="M20.7948 14.2856C20.7193 14.3611 20.7146 21.2184 20.7854 21.36C20.8326 21.4402 20.8892 21.4496 21.3517 21.4496C21.7528 21.4496 21.8803 21.4355 21.9369 21.3741C22.003 21.308 22.0124 20.9211 22.0124 17.8204C22.0124 15.1776 21.9983 14.328 21.9558 14.2856C21.918 14.2479 21.7198 14.229 21.3753 14.229C21.0307 14.229 20.8326 14.2479 20.7948 14.2856Z" fill="url(#paint2_linear_4374_1466)"/>
<defs>
<linearGradient id="paint0_linear_4374_1466" x1="8.13329" y1="3.20019" x2="36.0741" y2="11.7509" gradientUnits="userSpaceOnUse">
<stop stop-color="#00FFE1"/>
<stop offset="1" stop-color="#6E5DF6"/>
</linearGradient>
<linearGradient id="paint1_linear_4374_1466" x1="15.0034" y1="14.2266" x2="20.9065" y2="15.7508" gradientUnits="userSpaceOnUse">
<stop stop-color="#00FFE1"/>
<stop offset="1" stop-color="#6E5DF6"/>
</linearGradient>
<linearGradient id="paint2_linear_4374_1466" x1="20.948" y1="14.229" x2="22.2628" y2="14.3002" gradientUnits="userSpaceOnUse">
<stop stop-color="#00FFE1"/>
<stop offset="1" stop-color="#6E5DF6"/>
</linearGradient>
</defs>
</svg>
