<svg width="503" height="450" viewBox="0 0 503 450" fill="none" xmlns="http://www.w3.org/2000/svg">
<path d="M273.145 2.51089C210.704 14.8006 178.826 85.4457 78.2715 148.311C-22.281 211.174 -0.143166 456.647 158.667 416.613C310.17 378.421 317.182 381.436 416.406 384.962C540.601 389.375 470.746 -36.3768 273.145 2.51089Z" fill="url(#paint0_linear_4374_442)"/>
<rect x="0.394531" y="53" width="375" height="340" rx="8" fill="white"/>
<g clip-path="url(#clip0_4374_442)">
<path d="M313.596 307.292C313.596 310.381 311.327 312.455 308.641 312.455V312.436C305.879 312.455 303.651 310.381 303.651 307.293C303.651 304.205 305.879 302.138 308.641 302.138C311.328 302.137 313.596 304.205 313.596 307.292ZM315.606 307.292C315.606 303.053 312.312 300.592 308.641 300.592C304.945 300.592 301.65 303.053 301.65 307.292C301.65 311.529 304.945 314 308.641 314C312.313 314 315.606 311.529 315.606 307.292ZM307.486 307.859H308.231L309.959 310.893H311.857L309.943 307.731C310.932 307.661 311.746 307.19 311.746 305.859C311.746 304.205 310.605 303.673 308.673 303.673H305.878V310.893H307.485V307.859M307.486 306.637V304.898H308.603C309.211 304.898 310.04 304.948 310.04 305.689C310.04 306.496 309.611 306.637 308.894 306.637H307.486Z" fill="black"/>
<path d="M268.699 270.361L277.384 294.112H259.746L268.699 270.361ZM259.399 261.113L239.385 311.806H253.517L256.683 302.848H280.367L283.363 311.806H298.705L278.542 261.106L259.399 261.113ZM219.219 311.824H233.557V261.097L219.217 261.094L219.219 311.824ZM119.684 261.094L107.722 301.299L96.263 261.097L80.7928 261.094L97.1586 311.824H117.814L134.312 261.094H119.684ZM177.639 272.14H183.801C192.741 272.14 198.523 276.153 198.523 286.566C198.523 296.981 192.741 300.994 183.801 300.994H177.639V272.14ZM163.422 261.094V311.824H186.666C199.05 311.824 203.094 309.767 207.467 305.15C210.555 301.908 212.553 294.794 212.553 287.017C212.553 279.884 210.862 273.526 207.915 269.565C202.604 262.479 194.954 261.094 183.536 261.094H163.422ZM27.6055 261.023V311.824H42.0645V273.251L53.2678 273.254C56.9774 273.254 59.6218 274.178 61.4081 276.086C63.6739 278.499 64.599 282.393 64.599 289.517V311.824H78.6098V283.757C78.6098 263.724 65.838 261.023 53.3416 261.023H27.6055ZM140.346 261.094L140.352 311.824H154.683V261.094H140.346Z" fill="black"/>
<path d="M66.1372 160.084C66.1372 160.084 84.5778 132.884 121.398 130.07V120.201C80.615 123.476 45.2988 158.007 45.2988 158.007C45.2988 158.007 65.3013 215.815 121.398 221.108V210.619C80.2315 205.441 66.1372 160.084 66.1372 160.084ZM121.398 189.758V199.364C90.2852 193.819 81.6491 161.486 81.6491 161.486C81.6491 161.486 96.5875 144.942 121.398 142.259V152.8C121.379 152.8 121.366 152.794 121.35 152.794C108.328 151.232 98.1559 163.393 98.1559 163.393C98.1559 163.393 103.858 183.866 121.398 189.758ZM121.398 102V120.201C122.595 120.11 123.792 120.032 124.996 119.991C171.361 118.428 201.572 158.007 201.572 158.007C201.572 158.007 166.874 200.187 130.725 200.187C127.412 200.187 124.311 199.88 121.398 199.363V210.619C123.889 210.935 126.472 211.121 129.167 211.121C162.806 211.121 187.132 193.946 210.688 173.619C214.593 176.746 230.582 184.353 233.869 187.683C211.472 206.429 159.275 221.54 129.682 221.54C126.83 221.54 124.09 221.368 121.398 221.108V236.924H249.256V102H121.398ZM121.398 142.259V130.07C122.583 129.987 123.776 129.924 124.996 129.885C158.337 128.838 180.211 158.529 180.211 158.529C180.211 158.529 156.585 191.333 131.253 191.333C127.607 191.333 124.339 190.747 121.398 189.758V152.8C134.378 154.368 136.989 160.1 144.793 173.105L162.148 158.475C162.148 158.475 149.479 141.864 128.122 141.864C125.801 141.863 123.579 142.026 121.398 142.259Z" fill="#77B900"/>
</g>
<g filter="url(#filter0_b_4374_442)">
<rect x="227.606" y="377" width="275" height="73" rx="8" fill="white" fill-opacity="0.1"/>
<rect x="228.106" y="377.5" width="274" height="72" rx="7.5" stroke="url(#paint1_linear_4374_442)"/>
<path d="M292.725 401.592L296.055 404.208L274.856 430.088L262.235 414.669H255.638L239.817 434H246.478L258.963 418.684L271.652 434H278.057L299.771 407.141L302.844 409.566L306.817 394L292.725 401.592Z" fill="url(#paint2_linear_4374_442)"/>
<path d="M334.383 422H330.158V410.434C330.158 410.115 330.163 409.723 330.172 409.258C330.181 408.784 330.195 408.301 330.213 407.809C330.231 407.307 330.25 406.856 330.268 406.455C330.168 406.574 329.962 406.779 329.653 407.07C329.352 407.353 329.069 407.608 328.805 407.836L326.508 409.682L324.471 407.139L330.91 402.012H334.383V422ZM346.114 406.715H350.68L353.565 415.314C353.656 415.588 353.733 415.866 353.797 416.148C353.861 416.431 353.916 416.723 353.961 417.023C354.007 417.324 354.043 417.639 354.071 417.967H354.153C354.207 417.475 354.28 417.014 354.371 416.586C354.472 416.158 354.595 415.734 354.74 415.314L357.571 406.715H362.041L355.574 423.955C355.183 425.012 354.672 425.892 354.043 426.594C353.414 427.305 352.69 427.838 351.869 428.193C351.058 428.549 350.165 428.727 349.19 428.727C348.716 428.727 348.306 428.699 347.959 428.645C347.613 428.599 347.317 428.549 347.071 428.494V425.186C347.262 425.231 347.503 425.272 347.795 425.309C348.087 425.345 348.392 425.363 348.711 425.363C349.295 425.363 349.796 425.24 350.215 424.994C350.634 424.748 350.985 424.415 351.268 423.996C351.55 423.586 351.774 423.135 351.938 422.643L352.184 421.891L346.114 406.715ZM370.545 406.428C371.958 406.428 373.175 406.701 374.196 407.248C375.216 407.786 376.005 408.57 376.561 409.6C377.117 410.63 377.395 411.887 377.395 413.373V415.396H367.537C367.583 416.572 367.934 417.497 368.59 418.172C369.255 418.837 370.176 419.17 371.352 419.17C372.327 419.17 373.22 419.07 374.031 418.869C374.843 418.669 375.677 418.368 376.533 417.967V421.193C375.777 421.567 374.984 421.84 374.155 422.014C373.334 422.187 372.336 422.273 371.16 422.273C369.629 422.273 368.271 421.991 367.086 421.426C365.91 420.861 364.985 419.999 364.311 418.842C363.645 417.684 363.313 416.226 363.313 414.467C363.313 412.68 363.614 411.195 364.215 410.01C364.826 408.816 365.673 407.923 366.758 407.33C367.843 406.729 369.105 406.428 370.545 406.428ZM370.573 409.395C369.761 409.395 369.087 409.654 368.549 410.174C368.02 410.693 367.715 411.509 367.633 412.621H373.485C373.476 412.001 373.362 411.45 373.143 410.967C372.933 410.484 372.614 410.101 372.186 409.818C371.767 409.536 371.229 409.395 370.573 409.395ZM387.047 406.4C389.098 406.4 390.67 406.847 391.764 407.74C392.858 408.633 393.405 409.992 393.405 411.814V422H390.492L389.686 419.922H389.576C389.139 420.469 388.692 420.915 388.237 421.262C387.781 421.608 387.257 421.863 386.664 422.027C386.072 422.191 385.352 422.273 384.504 422.273C383.602 422.273 382.791 422.1 382.071 421.754C381.36 421.408 380.799 420.879 380.389 420.168C379.979 419.448 379.774 418.536 379.774 417.434C379.774 415.811 380.343 414.617 381.483 413.852C382.622 413.077 384.331 412.648 386.61 412.566L389.262 412.484V411.814C389.262 411.012 389.052 410.424 388.633 410.051C388.214 409.677 387.63 409.49 386.883 409.49C386.145 409.49 385.42 409.595 384.709 409.805C383.998 410.014 383.287 410.279 382.576 410.598L381.196 407.781C382.007 407.353 382.914 407.016 383.916 406.77C384.928 406.523 385.972 406.4 387.047 406.4ZM389.262 414.918L387.649 414.973C386.3 415.009 385.361 415.251 384.832 415.697C384.313 416.144 384.053 416.732 384.053 417.461C384.053 418.099 384.24 418.555 384.614 418.828C384.987 419.092 385.475 419.225 386.076 419.225C386.97 419.225 387.722 418.96 388.332 418.432C388.952 417.903 389.262 417.151 389.262 416.176V414.918ZM406.242 406.428C406.452 406.428 406.694 406.441 406.967 406.469C407.25 406.487 407.477 406.514 407.651 406.551L407.336 410.461C407.199 410.415 407.003 410.383 406.748 410.365C406.502 410.338 406.288 410.324 406.106 410.324C405.568 410.324 405.044 410.393 404.533 410.529C404.032 410.666 403.581 410.889 403.18 411.199C402.779 411.5 402.46 411.901 402.223 412.402C401.995 412.895 401.881 413.501 401.881 414.221V422H397.711V406.715H400.869L401.485 409.285H401.69C401.99 408.766 402.364 408.292 402.811 407.863C403.267 407.426 403.781 407.079 404.356 406.824C404.939 406.56 405.568 406.428 406.242 406.428ZM430.606 422H416.633V419.061L421.651 413.988C422.662 412.949 423.474 412.083 424.084 411.391C424.704 410.689 425.151 410.051 425.424 409.477C425.707 408.902 425.848 408.287 425.848 407.631C425.848 406.838 425.625 406.245 425.178 405.854C424.74 405.452 424.153 405.252 423.414 405.252C422.64 405.252 421.888 405.43 421.158 405.785C420.429 406.141 419.668 406.646 418.875 407.303L416.578 404.582C417.153 404.09 417.759 403.625 418.397 403.188C419.044 402.75 419.791 402.399 420.639 402.135C421.496 401.861 422.521 401.725 423.715 401.725C425.028 401.725 426.153 401.962 427.092 402.436C428.04 402.91 428.769 403.557 429.28 404.377C429.79 405.188 430.045 406.109 430.045 407.139C430.045 408.242 429.826 409.249 429.389 410.16C428.951 411.072 428.313 411.974 427.475 412.867C426.645 413.76 425.643 414.749 424.467 415.834L421.897 418.254V418.445H430.606V422ZM446.629 422H432.656V419.061L437.674 413.988C438.686 412.949 439.497 412.083 440.108 411.391C440.727 410.689 441.174 410.051 441.448 409.477C441.73 408.902 441.871 408.287 441.871 407.631C441.871 406.838 441.648 406.245 441.201 405.854C440.764 405.452 440.176 405.252 439.438 405.252C438.663 405.252 437.911 405.43 437.182 405.785C436.453 406.141 435.692 406.646 434.899 407.303L432.602 404.582C433.176 404.09 433.782 403.625 434.42 403.188C435.067 402.75 435.815 402.399 436.662 402.135C437.519 401.861 438.545 401.725 439.739 401.725C441.051 401.725 442.177 401.962 443.115 402.436C444.063 402.91 444.793 403.557 445.303 404.377C445.813 405.188 446.069 406.109 446.069 407.139C446.069 408.242 445.85 409.249 445.412 410.16C444.975 411.072 444.337 411.974 443.498 412.867C442.669 413.76 441.666 414.749 440.49 415.834L437.92 418.254V418.445H446.629V422ZM455.571 401.752C456.719 401.752 457.776 401.93 458.742 402.285C459.718 402.641 460.497 403.178 461.08 403.898C461.664 404.609 461.955 405.503 461.955 406.578C461.955 407.38 461.796 408.082 461.477 408.684C461.167 409.285 460.743 409.814 460.205 410.27C459.668 410.716 459.057 411.108 458.373 411.445C459.084 411.819 459.759 412.257 460.397 412.758C461.035 413.25 461.554 413.829 461.955 414.494C462.365 415.16 462.571 415.934 462.571 416.818C462.571 417.93 462.274 418.896 461.682 419.717C461.089 420.528 460.269 421.157 459.221 421.604C458.173 422.05 456.956 422.273 455.571 422.273C454.076 422.273 452.804 422.059 451.756 421.631C450.708 421.202 449.91 420.592 449.364 419.799C448.817 418.997 448.543 418.04 448.543 416.928C448.543 416.016 448.712 415.223 449.049 414.549C449.395 413.874 449.86 413.296 450.444 412.812C451.027 412.32 451.67 411.901 452.371 411.555C451.779 411.181 451.237 410.757 450.744 410.283C450.261 409.809 449.874 409.267 449.582 408.656C449.3 408.046 449.158 407.344 449.158 406.551C449.158 405.493 449.455 404.609 450.047 403.898C450.649 403.188 451.437 402.654 452.412 402.299C453.388 401.934 454.44 401.752 455.571 401.752ZM452.453 416.682C452.453 417.402 452.709 417.999 453.219 418.473C453.739 418.938 454.504 419.17 455.516 419.17C456.564 419.17 457.348 418.947 457.867 418.5C458.387 418.044 458.647 417.447 458.647 416.709C458.647 416.199 458.496 415.752 458.196 415.369C457.904 414.986 457.535 414.645 457.088 414.344C456.642 414.034 456.19 413.747 455.735 413.482L455.365 413.291C454.782 413.555 454.272 413.852 453.834 414.18C453.406 414.508 453.069 414.877 452.823 415.287C452.576 415.697 452.453 416.162 452.453 416.682ZM455.543 404.842C454.851 404.842 454.276 405.02 453.821 405.375C453.365 405.73 453.137 406.232 453.137 406.879C453.137 407.335 453.246 407.736 453.465 408.082C453.693 408.419 453.989 408.715 454.354 408.971C454.727 409.226 455.133 409.463 455.571 409.682C455.99 409.481 456.382 409.258 456.746 409.012C457.111 408.766 457.407 408.469 457.635 408.123C457.863 407.777 457.977 407.362 457.977 406.879C457.977 406.232 457.744 405.73 457.28 405.375C456.824 405.02 456.245 404.842 455.543 404.842ZM469.16 401.725C470.728 401.725 471.918 402.271 472.729 403.365C473.54 404.459 473.946 405.995 473.946 407.973C473.946 409.951 473.563 411.495 472.797 412.607C472.031 413.719 470.819 414.275 469.16 414.275C467.62 414.275 466.449 413.719 465.647 412.607C464.845 411.495 464.444 409.951 464.444 407.973C464.444 405.995 464.817 404.459 465.565 403.365C466.321 402.271 467.52 401.725 469.16 401.725ZM469.188 404.582C468.741 404.582 468.413 404.865 468.203 405.43C467.994 405.995 467.889 406.852 467.889 408C467.889 409.148 467.994 410.01 468.203 410.584C468.413 411.158 468.741 411.445 469.188 411.445C469.634 411.445 469.962 411.163 470.172 410.598C470.391 410.023 470.5 409.158 470.5 408C470.5 406.852 470.391 405.995 470.172 405.43C469.962 404.865 469.634 404.582 469.188 404.582ZM483.352 402.012L472.264 422H468.983L480.071 402.012H483.352ZM483.16 409.709C484.728 409.709 485.918 410.256 486.729 411.35C487.54 412.443 487.946 413.979 487.946 415.957C487.946 417.926 487.563 419.466 486.797 420.578C486.031 421.69 484.819 422.246 483.16 422.246C481.62 422.246 480.449 421.69 479.647 420.578C478.845 419.466 478.444 417.926 478.444 415.957C478.444 413.979 478.817 412.443 479.565 411.35C480.321 410.256 481.52 409.709 483.16 409.709ZM483.188 412.566C482.741 412.566 482.413 412.849 482.203 413.414C481.994 413.979 481.889 414.836 481.889 415.984C481.889 417.133 481.994 417.994 482.203 418.568C482.413 419.143 482.741 419.43 483.188 419.43C483.634 419.43 483.962 419.147 484.172 418.582C484.391 418.008 484.5 417.142 484.5 415.984C484.5 414.836 484.391 413.979 484.172 413.414C483.962 412.849 483.634 412.566 483.188 412.566Z" fill="url(#paint3_linear_4374_442)"/>
</g>
<defs>
<filter id="filter0_b_4374_442" x="207.606" y="357" width="315" height="113" filterUnits="userSpaceOnUse" color-interpolation-filters="sRGB">
<feFlood flood-opacity="0" result="BackgroundImageFix"/>
<feGaussianBlur in="BackgroundImageFix" stdDeviation="10"/>
<feComposite in2="SourceAlpha" operator="in" result="effect1_backgroundBlur_4374_442"/>
<feBlend mode="normal" in="SourceGraphic" in2="effect1_backgroundBlur_4374_442" result="shape"/>
</filter>
<linearGradient id="paint0_linear_4374_442" x1="248.229" y1="162.075" x2="291.101" y2="483.099" gradientUnits="userSpaceOnUse">
<stop stop-color="#00FFE1"/>
<stop offset="1" stop-color="#6E5DF6"/>
</linearGradient>
<linearGradient id="paint1_linear_4374_442" x1="502.606" y1="377" x2="488.265" y2="481.344" gradientUnits="userSpaceOnUse">
<stop offset="0.173941" stop-color="#6E5DF6"/>
<stop offset="0.804665" stop-color="#00FFE1"/>
</linearGradient>
<linearGradient id="paint2_linear_4374_442" x1="273.365" y1="409.399" x2="276.055" y2="440.209" gradientUnits="userSpaceOnUse">
<stop stop-color="#00FFE1"/>
<stop offset="1" stop-color="#6E5DF6"/>
</linearGradient>
<linearGradient id="paint3_linear_4374_442" x1="406.438" y1="407.474" x2="407.27" y2="434.613" gradientUnits="userSpaceOnUse">
<stop stop-color="#00FFE1"/>
<stop offset="1" stop-color="#6E5DF6"/>
</linearGradient>
<clipPath id="clip0_4374_442">
<rect width="288" height="212" fill="white" transform="translate(27.6055 102)"/>
</clipPath>
</defs>
</svg>
