<svg width="398" height="198" viewBox="0 0 398 198" fill="none" xmlns="http://www.w3.org/2000/svg">
<path d="M3.20321 14.6734V13.3995C2.69201 13.3913 2.21998 13.3459 1.78712 13.2635C1.35837 13.1769 0.987346 13.0656 0.674034 12.9295V11.6124C0.991469 11.7608 1.38311 11.8948 1.84896 12.0143C2.3148 12.1339 2.76622 12.2019 3.20321 12.2184V9.89948C2.60544 9.69748 2.11898 9.48723 1.74383 9.26873C1.3728 9.05024 1.10072 8.7967 0.92757 8.50813C0.754423 8.21543 0.66785 7.86501 0.66785 7.45688C0.66785 7.03638 0.772975 6.67566 0.983224 6.37472C1.1976 6.06965 1.49442 5.82848 1.87369 5.65121C2.25709 5.47394 2.70026 5.36882 3.20321 5.33584V4.32788H4.0071V5.31729C4.4647 5.32965 4.88726 5.38119 5.27478 5.47188C5.66642 5.55845 6.03951 5.68007 6.39405 5.83673L5.94263 6.98691C5.63344 6.86324 5.31188 6.76223 4.97796 6.68391C4.64403 6.60558 4.32041 6.55198 4.0071 6.52313V8.7864C4.51005 8.9513 4.95734 9.12857 5.34898 9.3182C5.74475 9.50784 6.05394 9.74695 6.27655 10.0355C6.50329 10.32 6.61666 10.6931 6.61666 11.1548C6.61666 11.7608 6.39405 12.2617 5.94881 12.6575C5.50358 13.0491 4.85634 13.2841 4.0071 13.3624V14.6734H3.20321ZM4.0071 12.1689C4.40286 12.1195 4.69762 12.0164 4.89138 11.8597C5.08514 11.699 5.18202 11.4908 5.18202 11.2352C5.18202 11.062 5.1408 10.9157 5.05835 10.7961C4.98002 10.6766 4.85428 10.5694 4.68113 10.4746C4.51211 10.3798 4.28743 10.287 4.0071 10.1963V12.1689ZM3.20321 8.48339V6.54786C2.9641 6.5726 2.7621 6.62207 2.59719 6.69627C2.43229 6.77048 2.30862 6.86736 2.22617 6.98691C2.14372 7.10647 2.10249 7.24869 2.10249 7.41359C2.10249 7.59499 2.13959 7.74958 2.2138 7.87738C2.28801 8.00518 2.4055 8.11649 2.56628 8.2113C2.73118 8.30612 2.94349 8.39682 3.20321 8.48339ZM12.85 13.9375H11.3906V8.11855C11.3906 7.92479 11.3927 7.73103 11.3968 7.53727C11.4009 7.34351 11.4051 7.15387 11.4092 6.96836C11.4174 6.78285 11.4277 6.60558 11.4401 6.43655C11.3535 6.53137 11.2463 6.63444 11.1185 6.74574C10.9949 6.85705 10.8629 6.97248 10.7228 7.09204L9.68389 7.92067L8.95421 6.99928L11.638 4.89679H12.85V13.9375ZM22.707 13.9375H16.5851V12.843L18.9287 10.4684C19.3822 10.0067 19.7553 9.60884 20.048 9.27492C20.3407 8.93687 20.5571 8.61737 20.6973 8.31643C20.8416 8.01548 20.9137 7.68774 20.9137 7.3332C20.9137 6.89622 20.788 6.56641 20.5365 6.3438C20.2851 6.11706 19.9532 6.00369 19.5409 6.00369C19.1493 6.00369 18.7865 6.08202 18.4526 6.23867C18.1228 6.39121 17.7806 6.6097 17.4261 6.89415L16.6284 5.93567C16.8798 5.72129 17.1478 5.52547 17.4323 5.34821C17.7208 5.17094 18.0424 5.03077 18.3969 4.92771C18.7515 4.82052 19.1555 4.76693 19.609 4.76693C20.182 4.76693 20.6767 4.86999 21.0931 5.07612C21.5094 5.27812 21.8289 5.56052 22.0516 5.9233C22.2783 6.28608 22.3917 6.70864 22.3917 7.19098C22.3917 7.67744 22.2948 8.12679 22.101 8.53904C21.9073 8.9513 21.6311 9.35943 21.2724 9.76344C20.9137 10.1633 20.4871 10.5982 19.9924 11.0682L18.4279 12.5956V12.6636H22.707V13.9375ZM30.7151 9.41096C30.7151 10.1406 30.6574 10.7941 30.542 11.3712C30.4307 11.9443 30.2534 12.4307 30.0102 12.8306C29.7669 13.2305 29.4495 13.5356 29.0579 13.7458C28.6662 13.9561 28.1921 14.0612 27.6356 14.0612C26.9389 14.0612 26.3638 13.8777 25.9103 13.5108C25.4568 13.1398 25.1208 12.608 24.9024 11.9154C24.6839 11.2187 24.5746 10.3839 24.5746 9.41096C24.5746 8.43804 24.6736 7.60529 24.8714 6.91271C25.0734 6.216 25.3991 5.68213 25.8485 5.3111C26.2978 4.94007 26.8935 4.75456 27.6356 4.75456C28.3364 4.75456 28.9136 4.94007 29.3671 5.3111C29.8247 5.67801 30.1627 6.20981 30.3812 6.90652C30.6038 7.59911 30.7151 8.43392 30.7151 9.41096ZM26.0402 9.41096C26.0402 10.1736 26.0896 10.8106 26.1886 11.3218C26.2916 11.8329 26.4607 12.2163 26.6957 12.4719C26.9306 12.7234 27.244 12.8492 27.6356 12.8492C28.0272 12.8492 28.3405 12.7234 28.5755 12.4719C28.8105 12.2205 28.9795 11.8391 29.0826 11.3279C29.1898 10.8167 29.2434 10.1778 29.2434 9.41096C29.2434 8.65241 29.1918 8.01754 29.0888 7.50635C28.9857 6.99516 28.8167 6.61176 28.5817 6.35616C28.3467 6.09644 28.0314 5.96659 27.6356 5.96659C27.2398 5.96659 26.9245 6.09644 26.6895 6.35616C26.4586 6.61176 26.2916 6.99516 26.1886 7.50635C26.0896 8.01754 26.0402 8.65241 26.0402 9.41096ZM38.7232 9.41096C38.7232 10.1406 38.6655 10.7941 38.5501 11.3712C38.4388 11.9443 38.2615 12.4307 38.0183 12.8306C37.775 13.2305 37.4576 13.5356 37.066 13.7458C36.6743 13.9561 36.2002 14.0612 35.6437 14.0612C34.947 14.0612 34.3719 13.8777 33.9184 13.5108C33.4649 13.1398 33.1289 12.608 32.9104 11.9154C32.6919 11.2187 32.5827 10.3839 32.5827 9.41096C32.5827 8.43804 32.6816 7.60529 32.8795 6.91271C33.0815 6.216 33.4072 5.68213 33.8566 5.3111C34.3059 4.94007 34.9016 4.75456 35.6437 4.75456C36.3445 4.75456 36.9217 4.94007 37.3751 5.3111C37.8327 5.67801 38.1708 6.20981 38.3893 6.90652C38.6119 7.59911 38.7232 8.43392 38.7232 9.41096ZM34.0483 9.41096C34.0483 10.1736 34.0977 10.8106 34.1967 11.3218C34.2997 11.8329 34.4688 12.2163 34.7037 12.4719C34.9387 12.7234 35.252 12.8492 35.6437 12.8492C36.0353 12.8492 36.3486 12.7234 36.5836 12.4719C36.8186 12.2205 36.9876 11.8391 37.0907 11.3279C37.1979 10.8167 37.2515 10.1778 37.2515 9.41096C37.2515 8.65241 37.1999 8.01754 37.0969 7.50635C36.9938 6.99516 36.8248 6.61176 36.5898 6.35616C36.3548 6.09644 36.0394 5.96659 35.6437 5.96659C35.2479 5.96659 34.9325 6.09644 34.6976 6.35616C34.4667 6.61176 34.2997 6.99516 34.1967 7.50635C34.0977 8.01754 34.0483 8.65241 34.0483 9.41096Z" fill="#929292"/>
<path d="M3.20321 50.6734V49.3995C2.69201 49.3913 2.21998 49.3459 1.78712 49.2635C1.35837 49.1769 0.987346 49.0656 0.674034 48.9295V47.6124C0.991469 47.7608 1.38311 47.8948 1.84896 48.0143C2.3148 48.1339 2.76622 48.2019 3.20321 48.2184V45.8995C2.60544 45.6975 2.11898 45.4872 1.74383 45.2687C1.3728 45.0502 1.10072 44.7967 0.92757 44.5081C0.754423 44.2154 0.66785 43.865 0.66785 43.4569C0.66785 43.0364 0.772975 42.6757 0.983224 42.3747C1.1976 42.0696 1.49442 41.8285 1.87369 41.6512C2.25709 41.4739 2.70026 41.3688 3.20321 41.3358V40.3279H4.0071V41.3173C4.4647 41.3297 4.88726 41.3812 5.27478 41.4719C5.66642 41.5585 6.03951 41.6801 6.39405 41.8367L5.94263 42.9869C5.63344 42.8632 5.31188 42.7622 4.97796 42.6839C4.64403 42.6056 4.32041 42.552 4.0071 42.5231V44.7864C4.51005 44.9513 4.95734 45.1286 5.34898 45.3182C5.74475 45.5078 6.05394 45.7469 6.27655 46.0355C6.50329 46.32 6.61666 46.6931 6.61666 47.1548C6.61666 47.7608 6.39405 48.2617 5.94881 48.6575C5.50358 49.0491 4.85634 49.2841 4.0071 49.3624V50.6734H3.20321ZM4.0071 48.1689C4.40286 48.1195 4.69762 48.0164 4.89138 47.8597C5.08514 47.699 5.18202 47.4908 5.18202 47.2352C5.18202 47.062 5.1408 46.9157 5.05835 46.7961C4.98002 46.6766 4.85428 46.5694 4.68113 46.4746C4.51211 46.3798 4.28743 46.287 4.0071 46.1963V48.1689ZM3.20321 44.4834V42.5479C2.9641 42.5726 2.7621 42.6221 2.59719 42.6963C2.43229 42.7705 2.30862 42.8674 2.22617 42.9869C2.14372 43.1065 2.10249 43.2487 2.10249 43.4136C2.10249 43.595 2.13959 43.7496 2.2138 43.8774C2.28801 44.0052 2.4055 44.1165 2.56628 44.2113C2.73118 44.3061 2.94349 44.3968 3.20321 44.4834ZM12.85 49.9375H11.3906V44.1185C11.3906 43.9248 11.3927 43.731 11.3968 43.5373C11.4009 43.3435 11.4051 43.1539 11.4092 42.9684C11.4174 42.7828 11.4277 42.6056 11.4401 42.4366C11.3535 42.5314 11.2463 42.6344 11.1185 42.7457C10.9949 42.8571 10.8629 42.9725 10.7228 43.092L9.68389 43.9207L8.95421 42.9993L11.638 40.8968H12.85V49.9375ZM22.707 45.411C22.707 46.1406 22.6493 46.7941 22.5339 47.3712C22.4226 47.9443 22.2453 48.4307 22.0021 48.8306C21.7589 49.2305 21.4414 49.5356 21.0498 49.7458C20.6581 49.9561 20.1841 50.0612 19.6275 50.0612C18.9308 50.0612 18.3557 49.8777 17.9022 49.5108C17.4488 49.1398 17.1128 48.608 16.8943 47.9154C16.6758 47.2187 16.5665 46.3839 16.5665 45.411C16.5665 44.438 16.6655 43.6053 16.8634 42.9127C17.0654 42.216 17.391 41.6821 17.8404 41.3111C18.2897 40.9401 18.8855 40.7546 19.6275 40.7546C20.3283 40.7546 20.9055 40.9401 21.359 41.3111C21.8166 41.678 22.1546 42.2098 22.3731 42.9065C22.5957 43.5991 22.707 44.4339 22.707 45.411ZM18.0321 45.411C18.0321 46.1736 18.0816 46.8106 18.1805 47.3218C18.2836 47.8329 18.4526 48.2163 18.6876 48.4719C18.9226 48.7234 19.2359 48.8492 19.6275 48.8492C20.0191 48.8492 20.3325 48.7234 20.5674 48.4719C20.8024 48.2205 20.9715 47.8391 21.0745 47.3279C21.1817 46.8167 21.2353 46.1778 21.2353 45.411C21.2353 44.6524 21.1838 44.0175 21.0807 43.5064C20.9776 42.9952 20.8086 42.6118 20.5736 42.3562C20.3386 42.0964 20.0233 41.9666 19.6275 41.9666C19.2317 41.9666 18.9164 42.0964 18.6814 42.3562C18.4505 42.6118 18.2836 42.9952 18.1805 43.5064C18.0816 44.0175 18.0321 44.6524 18.0321 45.411ZM30.7151 45.411C30.7151 46.1406 30.6574 46.7941 30.542 47.3712C30.4307 47.9443 30.2534 48.4307 30.0102 48.8306C29.7669 49.2305 29.4495 49.5356 29.0579 49.7458C28.6662 49.9561 28.1921 50.0612 27.6356 50.0612C26.9389 50.0612 26.3638 49.8777 25.9103 49.5108C25.4568 49.1398 25.1208 48.608 24.9024 47.9154C24.6839 47.2187 24.5746 46.3839 24.5746 45.411C24.5746 44.438 24.6736 43.6053 24.8714 42.9127C25.0734 42.216 25.3991 41.6821 25.8485 41.3111C26.2978 40.9401 26.8935 40.7546 27.6356 40.7546C28.3364 40.7546 28.9136 40.9401 29.3671 41.3111C29.8247 41.678 30.1627 42.2098 30.3812 42.9065C30.6038 43.5991 30.7151 44.4339 30.7151 45.411ZM26.0402 45.411C26.0402 46.1736 26.0896 46.8106 26.1886 47.3218C26.2916 47.8329 26.4607 48.2163 26.6957 48.4719C26.9306 48.7234 27.244 48.8492 27.6356 48.8492C28.0272 48.8492 28.3405 48.7234 28.5755 48.4719C28.8105 48.2205 28.9795 47.8391 29.0826 47.3279C29.1898 46.8167 29.2434 46.1778 29.2434 45.411C29.2434 44.6524 29.1918 44.0175 29.0888 43.5064C28.9857 42.9952 28.8167 42.6118 28.5817 42.3562C28.3467 42.0964 28.0314 41.9666 27.6356 41.9666C27.2398 41.9666 26.9245 42.0964 26.6895 42.3562C26.4586 42.6118 26.2916 42.9952 26.1886 43.5064C26.0896 44.0175 26.0402 44.6524 26.0402 45.411ZM38.7232 45.411C38.7232 46.1406 38.6655 46.7941 38.5501 47.3712C38.4388 47.9443 38.2615 48.4307 38.0183 48.8306C37.775 49.2305 37.4576 49.5356 37.066 49.7458C36.6743 49.9561 36.2002 50.0612 35.6437 50.0612C34.947 50.0612 34.3719 49.8777 33.9184 49.5108C33.4649 49.1398 33.1289 48.608 32.9104 47.9154C32.6919 47.2187 32.5827 46.3839 32.5827 45.411C32.5827 44.438 32.6816 43.6053 32.8795 42.9127C33.0815 42.216 33.4072 41.6821 33.8566 41.3111C34.3059 40.9401 34.9016 40.7546 35.6437 40.7546C36.3445 40.7546 36.9217 40.9401 37.3751 41.3111C37.8327 41.678 38.1708 42.2098 38.3893 42.9065C38.6119 43.5991 38.7232 44.4339 38.7232 45.411ZM34.0483 45.411C34.0483 46.1736 34.0977 46.8106 34.1967 47.3218C34.2997 47.8329 34.4688 48.2163 34.7037 48.4719C34.9387 48.7234 35.252 48.8492 35.6437 48.8492C36.0353 48.8492 36.3486 48.7234 36.5836 48.4719C36.8186 48.2205 36.9876 47.8391 37.0907 47.3279C37.1979 46.8167 37.2515 46.1778 37.2515 45.411C37.2515 44.6524 37.1999 44.0175 37.0969 43.5064C36.9938 42.9952 36.8248 42.6118 36.5898 42.3562C36.3548 42.0964 36.0394 41.9666 35.6437 41.9666C35.2479 41.9666 34.9325 42.0964 34.6976 42.3562C34.4667 42.6118 34.2997 42.9952 34.1967 43.5064C34.0977 44.0175 34.0483 44.6524 34.0483 45.411Z" fill="#929292"/>
<path d="M3.20321 86.6734V85.3995C2.69201 85.3913 2.21998 85.3459 1.78712 85.2635C1.35837 85.1769 0.987346 85.0656 0.674034 84.9295V83.6124C0.991469 83.7608 1.38311 83.8948 1.84896 84.0143C2.3148 84.1339 2.76622 84.2019 3.20321 84.2184V81.8995C2.60544 81.6975 2.11898 81.4872 1.74383 81.2687C1.3728 81.0502 1.10072 80.7967 0.92757 80.5081C0.754423 80.2154 0.66785 79.865 0.66785 79.4569C0.66785 79.0364 0.772975 78.6757 0.983224 78.3747C1.1976 78.0696 1.49442 77.8285 1.87369 77.6512C2.25709 77.4739 2.70026 77.3688 3.20321 77.3358V76.3279H4.0071V77.3173C4.4647 77.3297 4.88726 77.3812 5.27478 77.4719C5.66642 77.5585 6.03951 77.6801 6.39405 77.8367L5.94263 78.9869C5.63344 78.8632 5.31188 78.7622 4.97796 78.6839C4.64403 78.6056 4.32041 78.552 4.0071 78.5231V80.7864C4.51005 80.9513 4.95734 81.1286 5.34898 81.3182C5.74475 81.5078 6.05394 81.7469 6.27655 82.0355C6.50329 82.32 6.61666 82.6931 6.61666 83.1548C6.61666 83.7608 6.39405 84.2617 5.94881 84.6575C5.50358 85.0491 4.85634 85.2841 4.0071 85.3624V86.6734H3.20321ZM4.0071 84.1689C4.40286 84.1195 4.69762 84.0164 4.89138 83.8597C5.08514 83.699 5.18202 83.4908 5.18202 83.2352C5.18202 83.062 5.1408 82.9157 5.05835 82.7961C4.98002 82.6766 4.85428 82.5694 4.68113 82.4746C4.51211 82.3798 4.28743 82.287 4.0071 82.1963V84.1689ZM3.20321 80.4834V78.5479C2.9641 78.5726 2.7621 78.6221 2.59719 78.6963C2.43229 78.7705 2.30862 78.8674 2.22617 78.9869C2.14372 79.1065 2.10249 79.2487 2.10249 79.4136C2.10249 79.595 2.13959 79.7496 2.2138 79.8774C2.28801 80.0052 2.4055 80.1165 2.56628 80.2113C2.73118 80.3061 2.94349 80.3968 3.20321 80.4834ZM11.6503 80.2855C12.2316 80.2855 12.7428 80.3906 13.1839 80.6009C13.6292 80.807 13.9754 81.1121 14.2228 81.5161C14.4702 81.916 14.5938 82.4066 14.5938 82.9878C14.5938 83.6227 14.4598 84.171 14.1919 84.6327C13.9239 85.0903 13.5302 85.4428 13.0108 85.6901C12.4913 85.9375 11.8585 86.0612 11.1124 86.0612C10.6383 86.0612 10.1951 86.02 9.78284 85.9375C9.3747 85.855 9.02223 85.7314 8.72541 85.5665V84.2555C9.0346 84.4287 9.40562 84.5709 9.83849 84.6822C10.2714 84.7894 10.6857 84.843 11.0814 84.843C11.5019 84.843 11.8627 84.7811 12.1636 84.6575C12.4645 84.5338 12.6954 84.3441 12.8562 84.0885C13.0211 83.8329 13.1035 83.5093 13.1035 83.1177C13.1035 82.5982 12.9366 82.1984 12.6026 81.918C12.2728 81.6336 11.7555 81.4913 11.0505 81.4913C10.8032 81.4913 10.5393 81.514 10.259 81.5594C9.98278 81.6006 9.75192 81.6459 9.5664 81.6954L8.92947 81.3182L9.26958 76.8968H13.9693V78.1768H10.5496L10.3517 80.4277C10.5002 80.3948 10.6774 80.3638 10.8836 80.335C11.0897 80.302 11.3453 80.2855 11.6503 80.2855ZM22.707 81.411C22.707 82.1406 22.6493 82.7941 22.5339 83.3712C22.4226 83.9443 22.2453 84.4307 22.0021 84.8306C21.7589 85.2305 21.4414 85.5356 21.0498 85.7458C20.6581 85.9561 20.1841 86.0612 19.6275 86.0612C18.9308 86.0612 18.3557 85.8777 17.9022 85.5108C17.4488 85.1398 17.1128 84.608 16.8943 83.9154C16.6758 83.2187 16.5665 82.3839 16.5665 81.411C16.5665 80.438 16.6655 79.6053 16.8634 78.9127C17.0654 78.216 17.391 77.6821 17.8404 77.3111C18.2897 76.9401 18.8855 76.7546 19.6275 76.7546C20.3283 76.7546 20.9055 76.9401 21.359 77.3111C21.8166 77.678 22.1546 78.2098 22.3731 78.9065C22.5957 79.5991 22.707 80.4339 22.707 81.411ZM18.0321 81.411C18.0321 82.1736 18.0816 82.8106 18.1805 83.3218C18.2836 83.8329 18.4526 84.2163 18.6876 84.4719C18.9226 84.7234 19.2359 84.8492 19.6275 84.8492C20.0191 84.8492 20.3325 84.7234 20.5674 84.4719C20.8024 84.2205 20.9715 83.8391 21.0745 83.3279C21.1817 82.8167 21.2353 82.1778 21.2353 81.411C21.2353 80.6524 21.1838 80.0175 21.0807 79.5064C20.9776 78.9952 20.8086 78.6118 20.5736 78.3562C20.3386 78.0964 20.0233 77.9666 19.6275 77.9666C19.2317 77.9666 18.9164 78.0964 18.6814 78.3562C18.4505 78.6118 18.2836 78.9952 18.1805 79.5064C18.0816 80.0175 18.0321 80.6524 18.0321 81.411ZM30.7151 81.411C30.7151 82.1406 30.6574 82.7941 30.542 83.3712C30.4307 83.9443 30.2534 84.4307 30.0102 84.8306C29.7669 85.2305 29.4495 85.5356 29.0579 85.7458C28.6662 85.9561 28.1921 86.0612 27.6356 86.0612C26.9389 86.0612 26.3638 85.8777 25.9103 85.5108C25.4568 85.1398 25.1208 84.608 24.9024 83.9154C24.6839 83.2187 24.5746 82.3839 24.5746 81.411C24.5746 80.438 24.6736 79.6053 24.8714 78.9127C25.0734 78.216 25.3991 77.6821 25.8485 77.3111C26.2978 76.9401 26.8935 76.7546 27.6356 76.7546C28.3364 76.7546 28.9136 76.9401 29.3671 77.3111C29.8247 77.678 30.1627 78.2098 30.3812 78.9065C30.6038 79.5991 30.7151 80.4339 30.7151 81.411ZM26.0402 81.411C26.0402 82.1736 26.0896 82.8106 26.1886 83.3218C26.2916 83.8329 26.4607 84.2163 26.6957 84.4719C26.9306 84.7234 27.244 84.8492 27.6356 84.8492C28.0272 84.8492 28.3405 84.7234 28.5755 84.4719C28.8105 84.2205 28.9795 83.8391 29.0826 83.3279C29.1898 82.8167 29.2434 82.1778 29.2434 81.411C29.2434 80.6524 29.1918 80.0175 29.0888 79.5064C28.9857 78.9952 28.8167 78.6118 28.5817 78.3562C28.3467 78.0964 28.0314 77.9666 27.6356 77.9666C27.2398 77.9666 26.9245 78.0964 26.6895 78.3562C26.4586 78.6118 26.2916 78.9952 26.1886 79.5064C26.0896 80.0175 26.0402 80.6524 26.0402 81.411Z" fill="#929292"/>
<path d="M3.20321 122.673V121.4C2.69201 121.391 2.21998 121.346 1.78712 121.263C1.35837 121.177 0.987346 121.066 0.674034 120.93V119.612C0.991469 119.761 1.38311 119.895 1.84896 120.014C2.3148 120.134 2.76622 120.202 3.20321 120.218V117.899C2.60544 117.697 2.11898 117.487 1.74383 117.269C1.3728 117.05 1.10072 116.797 0.92757 116.508C0.754423 116.215 0.66785 115.865 0.66785 115.457C0.66785 115.036 0.772975 114.676 0.983224 114.375C1.1976 114.07 1.49442 113.828 1.87369 113.651C2.25709 113.474 2.70026 113.369 3.20321 113.336V112.328H4.0071V113.317C4.4647 113.33 4.88726 113.381 5.27478 113.472C5.66642 113.558 6.03951 113.68 6.39405 113.837L5.94263 114.987C5.63344 114.863 5.31188 114.762 4.97796 114.684C4.64403 114.606 4.32041 114.552 4.0071 114.523V116.786C4.51005 116.951 4.95734 117.129 5.34898 117.318C5.74475 117.508 6.05394 117.747 6.27655 118.036C6.50329 118.32 6.61666 118.693 6.61666 119.155C6.61666 119.761 6.39405 120.262 5.94881 120.657C5.50358 121.049 4.85634 121.284 4.0071 121.362V122.673H3.20321ZM4.0071 120.169C4.40286 120.119 4.69762 120.016 4.89138 119.86C5.08514 119.699 5.18202 119.491 5.18202 119.235C5.18202 119.062 5.1408 118.916 5.05835 118.796C4.98002 118.677 4.85428 118.569 4.68113 118.475C4.51211 118.38 4.28743 118.287 4.0071 118.196V120.169ZM3.20321 116.483V114.548C2.9641 114.573 2.7621 114.622 2.59719 114.696C2.43229 114.77 2.30862 114.867 2.22617 114.987C2.14372 115.106 2.10249 115.249 2.10249 115.414C2.10249 115.595 2.13959 115.75 2.2138 115.877C2.28801 116.005 2.4055 116.116 2.56628 116.211C2.73118 116.306 2.94349 116.397 3.20321 116.483ZM12.85 121.938H11.3906V116.119C11.3906 115.925 11.3927 115.731 11.3968 115.537C11.4009 115.344 11.4051 115.154 11.4092 114.968C11.4174 114.783 11.4277 114.606 11.4401 114.437C11.3535 114.531 11.2463 114.634 11.1185 114.746C10.9949 114.857 10.8629 114.972 10.7228 115.092L9.68389 115.921L8.95421 114.999L11.638 112.897H12.85V121.938ZM22.707 117.411C22.707 118.141 22.6493 118.794 22.5339 119.371C22.4226 119.944 22.2453 120.431 22.0021 120.831C21.7589 121.23 21.4414 121.536 21.0498 121.746C20.6581 121.956 20.1841 122.061 19.6275 122.061C18.9308 122.061 18.3557 121.878 17.9022 121.511C17.4488 121.14 17.1128 120.608 16.8943 119.915C16.6758 119.219 16.5665 118.384 16.5665 117.411C16.5665 116.438 16.6655 115.605 16.8634 114.913C17.0654 114.216 17.391 113.682 17.8404 113.311C18.2897 112.94 18.8855 112.755 19.6275 112.755C20.3283 112.755 20.9055 112.94 21.359 113.311C21.8166 113.678 22.1546 114.21 22.3731 114.907C22.5957 115.599 22.707 116.434 22.707 117.411ZM18.0321 117.411C18.0321 118.174 18.0816 118.811 18.1805 119.322C18.2836 119.833 18.4526 120.216 18.6876 120.472C18.9226 120.723 19.2359 120.849 19.6275 120.849C20.0191 120.849 20.3325 120.723 20.5674 120.472C20.8024 120.22 20.9715 119.839 21.0745 119.328C21.1817 118.817 21.2353 118.178 21.2353 117.411C21.2353 116.652 21.1838 116.018 21.0807 115.506C20.9776 114.995 20.8086 114.612 20.5736 114.356C20.3386 114.096 20.0233 113.967 19.6275 113.967C19.2317 113.967 18.9164 114.096 18.6814 114.356C18.4505 114.612 18.2836 114.995 18.1805 115.506C18.0816 116.018 18.0321 116.652 18.0321 117.411ZM30.7151 117.411C30.7151 118.141 30.6574 118.794 30.542 119.371C30.4307 119.944 30.2534 120.431 30.0102 120.831C29.7669 121.23 29.4495 121.536 29.0579 121.746C28.6662 121.956 28.1921 122.061 27.6356 122.061C26.9389 122.061 26.3638 121.878 25.9103 121.511C25.4568 121.14 25.1208 120.608 24.9024 119.915C24.6839 119.219 24.5746 118.384 24.5746 117.411C24.5746 116.438 24.6736 115.605 24.8714 114.913C25.0734 114.216 25.3991 113.682 25.8485 113.311C26.2978 112.94 26.8935 112.755 27.6356 112.755C28.3364 112.755 28.9136 112.94 29.3671 113.311C29.8247 113.678 30.1627 114.21 30.3812 114.907C30.6038 115.599 30.7151 116.434 30.7151 117.411ZM26.0402 117.411C26.0402 118.174 26.0896 118.811 26.1886 119.322C26.2916 119.833 26.4607 120.216 26.6957 120.472C26.9306 120.723 27.244 120.849 27.6356 120.849C28.0272 120.849 28.3405 120.723 28.5755 120.472C28.8105 120.22 28.9795 119.839 29.0826 119.328C29.1898 118.817 29.2434 118.178 29.2434 117.411C29.2434 116.652 29.1918 116.018 29.0888 115.506C28.9857 114.995 28.8167 114.612 28.5817 114.356C28.3467 114.096 28.0314 113.967 27.6356 113.967C27.2398 113.967 26.9245 114.096 26.6895 114.356C26.4586 114.612 26.2916 114.995 26.1886 115.506C26.0896 116.018 26.0402 116.652 26.0402 117.411Z" fill="#929292"/>
<path d="M3.20321 158.673V157.4C2.69201 157.391 2.21998 157.346 1.78712 157.263C1.35837 157.177 0.987346 157.066 0.674034 156.93V155.612C0.991469 155.761 1.38311 155.895 1.84896 156.014C2.3148 156.134 2.76622 156.202 3.20321 156.218V153.899C2.60544 153.697 2.11898 153.487 1.74383 153.269C1.3728 153.05 1.10072 152.797 0.92757 152.508C0.754423 152.215 0.66785 151.865 0.66785 151.457C0.66785 151.036 0.772975 150.676 0.983224 150.375C1.1976 150.07 1.49442 149.828 1.87369 149.651C2.25709 149.474 2.70026 149.369 3.20321 149.336V148.328H4.0071V149.317C4.4647 149.33 4.88726 149.381 5.27478 149.472C5.66642 149.558 6.03951 149.68 6.39405 149.837L5.94263 150.987C5.63344 150.863 5.31188 150.762 4.97796 150.684C4.64403 150.606 4.32041 150.552 4.0071 150.523V152.786C4.51005 152.951 4.95734 153.129 5.34898 153.318C5.74475 153.508 6.05394 153.747 6.27655 154.036C6.50329 154.32 6.61666 154.693 6.61666 155.155C6.61666 155.761 6.39405 156.262 5.94881 156.657C5.50358 157.049 4.85634 157.284 4.0071 157.362V158.673H3.20321ZM4.0071 156.169C4.40286 156.119 4.69762 156.016 4.89138 155.86C5.08514 155.699 5.18202 155.491 5.18202 155.235C5.18202 155.062 5.1408 154.916 5.05835 154.796C4.98002 154.677 4.85428 154.569 4.68113 154.475C4.51211 154.38 4.28743 154.287 4.0071 154.196V156.169ZM3.20321 152.483V150.548C2.9641 150.573 2.7621 150.622 2.59719 150.696C2.43229 150.77 2.30862 150.867 2.22617 150.987C2.14372 151.106 2.10249 151.249 2.10249 151.414C2.10249 151.595 2.13959 151.75 2.2138 151.877C2.28801 152.005 2.4055 152.116 2.56628 152.211C2.73118 152.306 2.94349 152.397 3.20321 152.483ZM11.6503 152.286C12.2316 152.286 12.7428 152.391 13.1839 152.601C13.6292 152.807 13.9754 153.112 14.2228 153.516C14.4702 153.916 14.5938 154.407 14.5938 154.988C14.5938 155.623 14.4598 156.171 14.1919 156.633C13.9239 157.09 13.5302 157.443 13.0108 157.69C12.4913 157.938 11.8585 158.061 11.1124 158.061C10.6383 158.061 10.1951 158.02 9.78284 157.938C9.3747 157.855 9.02223 157.731 8.72541 157.566V156.256C9.0346 156.429 9.40562 156.571 9.83849 156.682C10.2714 156.789 10.6857 156.843 11.0814 156.843C11.5019 156.843 11.8627 156.781 12.1636 156.657C12.4645 156.534 12.6954 156.344 12.8562 156.089C13.0211 155.833 13.1035 155.509 13.1035 155.118C13.1035 154.598 12.9366 154.198 12.6026 153.918C12.2728 153.634 11.7555 153.491 11.0505 153.491C10.8032 153.491 10.5393 153.514 10.259 153.559C9.98278 153.601 9.75192 153.646 9.5664 153.695L8.92947 153.318L9.26958 148.897H13.9693V150.177H10.5496L10.3517 152.428C10.5002 152.395 10.6774 152.364 10.8836 152.335C11.0897 152.302 11.3453 152.286 11.6503 152.286ZM22.707 153.411C22.707 154.141 22.6493 154.794 22.5339 155.371C22.4226 155.944 22.2453 156.431 22.0021 156.831C21.7589 157.23 21.4414 157.536 21.0498 157.746C20.6581 157.956 20.1841 158.061 19.6275 158.061C18.9308 158.061 18.3557 157.878 17.9022 157.511C17.4488 157.14 17.1128 156.608 16.8943 155.915C16.6758 155.219 16.5665 154.384 16.5665 153.411C16.5665 152.438 16.6655 151.605 16.8634 150.913C17.0654 150.216 17.391 149.682 17.8404 149.311C18.2897 148.94 18.8855 148.755 19.6275 148.755C20.3283 148.755 20.9055 148.94 21.359 149.311C21.8166 149.678 22.1546 150.21 22.3731 150.907C22.5957 151.599 22.707 152.434 22.707 153.411ZM18.0321 153.411C18.0321 154.174 18.0816 154.811 18.1805 155.322C18.2836 155.833 18.4526 156.216 18.6876 156.472C18.9226 156.723 19.2359 156.849 19.6275 156.849C20.0191 156.849 20.3325 156.723 20.5674 156.472C20.8024 156.22 20.9715 155.839 21.0745 155.328C21.1817 154.817 21.2353 154.178 21.2353 153.411C21.2353 152.652 21.1838 152.018 21.0807 151.506C20.9776 150.995 20.8086 150.612 20.5736 150.356C20.3386 150.096 20.0233 149.967 19.6275 149.967C19.2317 149.967 18.9164 150.096 18.6814 150.356C18.4505 150.612 18.2836 150.995 18.1805 151.506C18.0816 152.018 18.0321 152.652 18.0321 153.411Z" fill="#929292"/>
<path d="M3.20321 194.673V193.4C2.69201 193.391 2.21998 193.346 1.78712 193.263C1.35837 193.177 0.987346 193.066 0.674034 192.93V191.612C0.991469 191.761 1.38311 191.895 1.84896 192.014C2.3148 192.134 2.76622 192.202 3.20321 192.218V189.899C2.60544 189.697 2.11898 189.487 1.74383 189.269C1.3728 189.05 1.10072 188.797 0.92757 188.508C0.754423 188.215 0.66785 187.865 0.66785 187.457C0.66785 187.036 0.772975 186.676 0.983224 186.375C1.1976 186.07 1.49442 185.828 1.87369 185.651C2.25709 185.474 2.70026 185.369 3.20321 185.336V184.328H4.0071V185.317C4.4647 185.33 4.88726 185.381 5.27478 185.472C5.66642 185.558 6.03951 185.68 6.39405 185.837L5.94263 186.987C5.63344 186.863 5.31188 186.762 4.97796 186.684C4.64403 186.606 4.32041 186.552 4.0071 186.523V188.786C4.51005 188.951 4.95734 189.129 5.34898 189.318C5.74475 189.508 6.05394 189.747 6.27655 190.036C6.50329 190.32 6.61666 190.693 6.61666 191.155C6.61666 191.761 6.39405 192.262 5.94881 192.657C5.50358 193.049 4.85634 193.284 4.0071 193.362V194.673H3.20321ZM4.0071 192.169C4.40286 192.119 4.69762 192.016 4.89138 191.86C5.08514 191.699 5.18202 191.491 5.18202 191.235C5.18202 191.062 5.1408 190.916 5.05835 190.796C4.98002 190.677 4.85428 190.569 4.68113 190.475C4.51211 190.38 4.28743 190.287 4.0071 190.196V192.169ZM3.20321 188.483V186.548C2.9641 186.573 2.7621 186.622 2.59719 186.696C2.43229 186.77 2.30862 186.867 2.22617 186.987C2.14372 187.106 2.10249 187.249 2.10249 187.414C2.10249 187.595 2.13959 187.75 2.2138 187.877C2.28801 188.005 2.4055 188.116 2.56628 188.211C2.73118 188.306 2.94349 188.397 3.20321 188.483ZM14.699 189.411C14.699 190.141 14.6412 190.794 14.5258 191.371C14.4145 191.944 14.2372 192.431 13.994 192.831C13.7508 193.23 13.4333 193.536 13.0417 193.746C12.6501 193.956 12.176 194.061 11.6194 194.061C10.9227 194.061 10.3476 193.878 9.89414 193.511C9.44067 193.14 9.10468 192.608 8.88618 191.915C8.66769 191.219 8.55844 190.384 8.55844 189.411C8.55844 188.438 8.65738 187.605 8.85527 186.913C9.05727 186.216 9.38295 185.682 9.83231 185.311C10.2817 184.94 10.8774 184.755 11.6194 184.755C12.3203 184.755 12.8974 184.94 13.3509 185.311C13.8085 185.678 14.1465 186.21 14.365 186.907C14.5876 187.599 14.699 188.434 14.699 189.411ZM10.024 189.411C10.024 190.174 10.0735 190.811 10.1724 191.322C10.2755 191.833 10.4445 192.216 10.6795 192.472C10.9145 192.723 11.2278 192.849 11.6194 192.849C12.0111 192.849 12.3244 192.723 12.5594 192.472C12.7943 192.22 12.9634 191.839 13.0664 191.328C13.1736 190.817 13.2272 190.178 13.2272 189.411C13.2272 188.652 13.1757 188.018 13.0726 187.506C12.9696 186.995 12.8005 186.612 12.5655 186.356C12.3306 186.096 12.0152 185.967 11.6194 185.967C11.2237 185.967 10.9083 186.096 10.6733 186.356C10.4424 186.612 10.2755 186.995 10.1724 187.506C10.0735 188.018 10.024 188.652 10.024 189.411Z" fill="#929292"/>
<path d="M55 45.9375H398" stroke="#D9D9D9"/>
<path d="M55 9.9375H398" stroke="#D9D9D9"/>
<path d="M55 81.4375H398" stroke="#D9D9D9"/>
<path d="M55 116.938H398" stroke="#D9D9D9"/>
<path d="M55 152.938H398" stroke="#D9D9D9"/>
<path d="M55 188.938H398" stroke="#D9D9D9"/>
<rect x="55" y="182.938" width="12" height="6" fill="#0AA11D"/>
<rect x="61" y="181.938" width="1" height="1" fill="#0AA11D"/>
<rect x="70" y="181.938" width="8" height="2" fill="#E20D0D"/>
<rect x="74" y="179.938" width="1" height="2" fill="#E20D0D"/>
<rect x="101" y="181.938" width="8" height="1" fill="#E20D0D"/>
<rect x="105.25" y="181.188" width="0.5" height="0.5" fill="#E20D0D" stroke="#E20D0D" stroke-width="0.5"/>
<rect x="116" y="181.938" width="8" height="1" fill="#E20D0D"/>
<rect x="120" y="180.938" width="1" height="1" fill="#E20D0D"/>
<rect x="160" y="182.938" width="8" height="2" fill="#E20D0D"/>
<rect x="164.25" y="182.188" width="0.5" height="0.5" fill="#E20D0D" stroke="#E20D0D" stroke-width="0.5"/>
<rect x="86" y="181.005" width="8" height="0.984756" fill="#E20D0D"/>
<rect x="90.25" y="179.188" width="0.5" height="2.5" fill="#E20D0D" stroke="#E20D0D" stroke-width="0.5"/>
<rect x="176" y="183.959" width="8" height="0.984756" fill="#E20D0D"/>
<rect x="180.25" y="183.188" width="0.5" height="0.977134" fill="#E20D0D" stroke="#E20D0D" stroke-width="0.5"/>
<rect x="237" y="180.512" width="8" height="0.984756" fill="#0AA11D"/>
<rect x="241" y="178.543" width="1" height="3.44665" fill="#0AA11D"/>
<rect width="8" height="0.984756" transform="matrix(1 0 0 -1 252 180.512)" fill="#0AA11D"/>
<rect width="1" height="3.44665" transform="matrix(1 0 0 -1 256 181.989)" fill="#0AA11D"/>
<rect width="8" height="1.96951" transform="matrix(1 0 0 -1 266 178.543)" fill="#0AA11D"/>
<rect width="1" height="4.4314" transform="matrix(1 0 0 -1 270 180.02)" fill="#0AA11D"/>
<rect x="191" y="184.451" width="8" height="1.96951" fill="#E20D0D"/>
<rect x="195.25" y="183.716" width="0.5" height="3.43902" fill="#E20D0D" stroke="#E20D0D" stroke-width="0.5"/>
<rect x="312" y="149.684" width="8" height="3.44665" fill="#E20D0D"/>
<rect x="316" y="142.791" width="1" height="12.8018" fill="#E20D0D"/>
<rect x="342" y="133.436" width="8" height="2.95427" fill="#E20D0D"/>
<rect x="346.25" y="126.3" width="0.5" height="12.3018" fill="#E20D0D" stroke="#E20D0D" stroke-width="0.5"/>
<rect x="130" y="183.466" width="8" height="0.492378" fill="#0AA11D"/>
<rect x="134" y="183.466" width="1" height="2.95427" fill="#0AA11D"/>
<rect x="145" y="181.497" width="8" height="2.46189" fill="#0AA11D"/>
<rect x="149" y="181.497" width="1" height="3.44665" fill="#0AA11D"/>
<rect x="206" y="184.451" width="8" height="3.44665" fill="#0AA11D"/>
<rect x="210.25" y="182.732" width="0.5" height="3.43902" fill="#0AA11D" stroke="#0AA11D" stroke-width="0.5"/>
<rect width="8" height="3.44665" transform="matrix(1 0 0 -1 221 184.944)" fill="#0AA11D"/>
<rect width="1" height="1" transform="matrix(1 0 0 -1 225 185.938)" fill="#0AA11D"/>
<rect width="8" height="5.90854" transform="matrix(1 0 0 -1 281 177.065)" fill="#0AA11D"/>
<rect width="1" height="1.47713" transform="matrix(1 0 0 -1 285 178.543)" fill="#0AA11D"/>
<rect width="1" height="1.96951" transform="matrix(1 0 0 -1 285 171.157)" fill="#0AA11D"/>
<rect width="8" height="27.5732" transform="matrix(1 0 0 -1 296 178.735)" fill="#0AA11D"/>
<rect width="1" height="1.47713" transform="matrix(1 0 0 -1 300 151.162)" fill="#0AA11D"/>
<rect width="8" height="11.3247" transform="matrix(1 0 0 -1 357 137.867)" fill="#0AA11D"/>
<rect width="1" height="1.47713" transform="matrix(1 0 0 -1 361 126.543)" fill="#0AA11D"/>
<rect width="8" height="1" transform="matrix(1 0 0 -1 374 123.938)" fill="#0AA11D"/>
<rect width="1" height="10.8323" transform="matrix(1 0 0 -1 378 132.77)" fill="#0AA11D"/>
<rect width="8" height="4.4314" transform="matrix(1 0 0 -1 390 124.081)" fill="#0AA11D"/>
<rect width="1" height="8.86281" transform="matrix(1 0 0 -1 394 126.05)" fill="#0AA11D"/>
<rect x="327" y="138.36" width="8" height="16.2485" fill="#0AA11D"/>
<rect x="331" y="154.608" width="1" height="1.96951" fill="#0AA11D"/>
</svg>
