<svg width="398" height="197" viewBox="0 0 398 197" fill="none" xmlns="http://www.w3.org/2000/svg">
<path d="M3.20321 13.7359V12.462C2.69201 12.4538 2.21998 12.4084 1.78712 12.326C1.35837 12.2394 0.987346 12.1281 0.674034 11.992V10.6749C0.991469 10.8233 1.38311 10.9573 1.84896 11.0768C2.3148 11.1964 2.76622 11.2644 3.20321 11.2809V8.96198C2.60544 8.75998 2.11898 8.54973 1.74383 8.33123C1.3728 8.11274 1.10072 7.8592 0.92757 7.57063C0.754423 7.27793 0.66785 6.92751 0.66785 6.51938C0.66785 6.09888 0.772975 5.73816 0.983224 5.43722C1.1976 5.13215 1.49442 4.89098 1.87369 4.71371C2.25709 4.53644 2.70026 4.43132 3.20321 4.39834V3.39038H4.0071V4.37979C4.4647 4.39215 4.88726 4.44369 5.27478 4.53438C5.66642 4.62095 6.03951 4.74257 6.39405 4.89923L5.94263 6.04941C5.63344 5.92574 5.31188 5.82473 4.97796 5.74641C4.64403 5.66808 4.32041 5.61448 4.0071 5.58563V7.8489C4.51005 8.0138 4.95734 8.19107 5.34898 8.3807C5.74475 8.57034 6.05394 8.80945 6.27655 9.09802C6.50329 9.38248 6.61666 9.75557 6.61666 10.2173C6.61666 10.8233 6.39405 11.3242 5.94881 11.72C5.50358 12.1116 4.85634 12.3466 4.0071 12.4249V13.7359H3.20321ZM4.0071 11.2314C4.40286 11.182 4.69762 11.0789 4.89138 10.9222C5.08514 10.7615 5.18202 10.5533 5.18202 10.2977C5.18202 10.1245 5.1408 9.97818 5.05835 9.85863C4.98002 9.73908 4.85428 9.63189 4.68113 9.53707C4.51211 9.44226 4.28743 9.3495 4.0071 9.2588V11.2314ZM3.20321 7.54589V5.61036C2.9641 5.6351 2.7621 5.68457 2.59719 5.75877C2.43229 5.83298 2.30862 5.92986 2.22617 6.04941C2.14372 6.16897 2.10249 6.31119 2.10249 6.47609C2.10249 6.65749 2.13959 6.81208 2.2138 6.93988C2.28801 7.06768 2.4055 7.17899 2.56628 7.2738C2.73118 7.36862 2.94349 7.45932 3.20321 7.54589ZM12.85 13H11.3906V7.18105C11.3906 6.98729 11.3927 6.79353 11.3968 6.59977C11.4009 6.40601 11.4051 6.21637 11.4092 6.03086C11.4174 5.84535 11.4277 5.66808 11.4401 5.49905C11.3535 5.59387 11.2463 5.69694 11.1185 5.80824C10.9949 5.91955 10.8629 6.03498 10.7228 6.15454L9.68389 6.98317L8.95421 6.06178L11.638 3.95929H12.85V13ZM22.707 13H16.5851V11.9055L18.9287 9.53089C19.3822 9.06917 19.7553 8.67134 20.048 8.33742C20.3407 7.99937 20.5571 7.67987 20.6973 7.37893C20.8416 7.07798 20.9137 6.75024 20.9137 6.3957C20.9137 5.95872 20.788 5.62891 20.5365 5.4063C20.2851 5.17956 19.9532 5.06619 19.5409 5.06619C19.1493 5.06619 18.7865 5.14452 18.4526 5.30117C18.1228 5.45371 17.7806 5.6722 17.4261 5.95665L16.6284 4.99817C16.8798 4.78379 17.1478 4.58797 17.4323 4.41071C17.7208 4.23344 18.0424 4.09327 18.3969 3.99021C18.7515 3.88302 19.1555 3.82943 19.609 3.82943C20.182 3.82943 20.6767 3.93249 21.0931 4.13862C21.5094 4.34062 21.8289 4.62302 22.0516 4.9858C22.2783 5.34858 22.3917 5.77114 22.3917 6.25348C22.3917 6.73994 22.2948 7.18929 22.101 7.60154C21.9073 8.0138 21.6311 8.42193 21.2724 8.82594C20.9137 9.22582 20.4871 9.66075 19.9924 10.1307L18.4279 11.6581V11.7261H22.707V13ZM30.7151 8.47346C30.7151 9.20315 30.6574 9.85657 30.542 10.4337C30.4307 11.0068 30.2534 11.4932 30.0102 11.8931C29.7669 12.293 29.4495 12.5981 29.0579 12.8083C28.6662 13.0186 28.1921 13.1237 27.6356 13.1237C26.9389 13.1237 26.3638 12.9402 25.9103 12.5733C25.4568 12.2023 25.1208 11.6705 24.9024 10.9779C24.6839 10.2812 24.5746 9.44638 24.5746 8.47346C24.5746 7.50054 24.6736 6.66779 24.8714 5.97521C25.0734 5.2785 25.3991 4.74463 25.8485 4.3736C26.2978 4.00257 26.8935 3.81706 27.6356 3.81706C28.3364 3.81706 28.9136 4.00257 29.3671 4.3736C29.8247 4.74051 30.1627 5.27231 30.3812 5.96902C30.6038 6.66161 30.7151 7.49642 30.7151 8.47346ZM26.0402 8.47346C26.0402 9.23613 26.0896 9.87306 26.1886 10.3843C26.2916 10.8954 26.4607 11.2788 26.6957 11.5344C26.9306 11.7859 27.244 11.9117 27.6356 11.9117C28.0272 11.9117 28.3405 11.7859 28.5755 11.5344C28.8105 11.283 28.9795 10.9016 29.0826 10.3904C29.1898 9.87924 29.2434 9.24025 29.2434 8.47346C29.2434 7.71491 29.1918 7.08004 29.0888 6.56885C28.9857 6.05766 28.8167 5.67426 28.5817 5.41866C28.3467 5.15894 28.0314 5.02909 27.6356 5.02909C27.2398 5.02909 26.9245 5.15894 26.6895 5.41866C26.4586 5.67426 26.2916 6.05766 26.1886 6.56885C26.0896 7.08004 26.0402 7.71491 26.0402 8.47346ZM38.7232 8.47346C38.7232 9.20315 38.6655 9.85657 38.5501 10.4337C38.4388 11.0068 38.2615 11.4932 38.0183 11.8931C37.775 12.293 37.4576 12.5981 37.066 12.8083C36.6743 13.0186 36.2002 13.1237 35.6437 13.1237C34.947 13.1237 34.3719 12.9402 33.9184 12.5733C33.4649 12.2023 33.1289 11.6705 32.9104 10.9779C32.6919 10.2812 32.5827 9.44638 32.5827 8.47346C32.5827 7.50054 32.6816 6.66779 32.8795 5.97521C33.0815 5.2785 33.4072 4.74463 33.8566 4.3736C34.3059 4.00257 34.9016 3.81706 35.6437 3.81706C36.3445 3.81706 36.9217 4.00257 37.3751 4.3736C37.8327 4.74051 38.1708 5.27231 38.3893 5.96902C38.6119 6.66161 38.7232 7.49642 38.7232 8.47346ZM34.0483 8.47346C34.0483 9.23613 34.0977 9.87306 34.1967 10.3843C34.2997 10.8954 34.4688 11.2788 34.7037 11.5344C34.9387 11.7859 35.252 11.9117 35.6437 11.9117C36.0353 11.9117 36.3486 11.7859 36.5836 11.5344C36.8186 11.283 36.9876 10.9016 37.0907 10.3904C37.1979 9.87924 37.2515 9.24025 37.2515 8.47346C37.2515 7.71491 37.1999 7.08004 37.0969 6.56885C36.9938 6.05766 36.8248 5.67426 36.5898 5.41866C36.3548 5.15894 36.0394 5.02909 35.6437 5.02909C35.2479 5.02909 34.9325 5.15894 34.6976 5.41866C34.4667 5.67426 34.2997 6.05766 34.1967 6.56885C34.0977 7.08004 34.0483 7.71491 34.0483 8.47346Z" fill="#929292"/>
<path d="M3.20321 49.7359V48.462C2.69201 48.4538 2.21998 48.4084 1.78712 48.326C1.35837 48.2394 0.987346 48.1281 0.674034 47.992V46.6749C0.991469 46.8233 1.38311 46.9573 1.84896 47.0768C2.3148 47.1964 2.76622 47.2644 3.20321 47.2809V44.962C2.60544 44.76 2.11898 44.5497 1.74383 44.3312C1.3728 44.1127 1.10072 43.8592 0.92757 43.5706C0.754423 43.2779 0.66785 42.9275 0.66785 42.5194C0.66785 42.0989 0.772975 41.7382 0.983224 41.4372C1.1976 41.1321 1.49442 40.891 1.87369 40.7137C2.25709 40.5364 2.70026 40.4313 3.20321 40.3983V39.3904H4.0071V40.3798C4.4647 40.3922 4.88726 40.4437 5.27478 40.5344C5.66642 40.621 6.03951 40.7426 6.39405 40.8992L5.94263 42.0494C5.63344 41.9257 5.31188 41.8247 4.97796 41.7464C4.64403 41.6681 4.32041 41.6145 4.0071 41.5856V43.8489C4.51005 44.0138 4.95734 44.1911 5.34898 44.3807C5.74475 44.5703 6.05394 44.8094 6.27655 45.098C6.50329 45.3825 6.61666 45.7556 6.61666 46.2173C6.61666 46.8233 6.39405 47.3242 5.94881 47.72C5.50358 48.1116 4.85634 48.3466 4.0071 48.4249V49.7359H3.20321ZM4.0071 47.2314C4.40286 47.182 4.69762 47.0789 4.89138 46.9222C5.08514 46.7615 5.18202 46.5533 5.18202 46.2977C5.18202 46.1245 5.1408 45.9782 5.05835 45.8586C4.98002 45.7391 4.85428 45.6319 4.68113 45.5371C4.51211 45.4423 4.28743 45.3495 4.0071 45.2588V47.2314ZM3.20321 43.5459V41.6104C2.9641 41.6351 2.7621 41.6846 2.59719 41.7588C2.43229 41.833 2.30862 41.9299 2.22617 42.0494C2.14372 42.169 2.10249 42.3112 2.10249 42.4761C2.10249 42.6575 2.13959 42.8121 2.2138 42.9399C2.28801 43.0677 2.4055 43.179 2.56628 43.2738C2.73118 43.3686 2.94349 43.4593 3.20321 43.5459ZM12.85 49H11.3906V43.181C11.3906 42.9873 11.3927 42.7935 11.3968 42.5998C11.4009 42.406 11.4051 42.2164 11.4092 42.0309C11.4174 41.8453 11.4277 41.6681 11.4401 41.4991C11.3535 41.5939 11.2463 41.6969 11.1185 41.8082C10.9949 41.9196 10.8629 42.035 10.7228 42.1545L9.68389 42.9832L8.95421 42.0618L11.638 39.9593H12.85V49ZM22.707 44.4735C22.707 45.2031 22.6493 45.8566 22.5339 46.4337C22.4226 47.0068 22.2453 47.4932 22.0021 47.8931C21.7589 48.293 21.4414 48.5981 21.0498 48.8083C20.6581 49.0186 20.1841 49.1237 19.6275 49.1237C18.9308 49.1237 18.3557 48.9402 17.9022 48.5733C17.4488 48.2023 17.1128 47.6705 16.8943 46.9779C16.6758 46.2812 16.5665 45.4464 16.5665 44.4735C16.5665 43.5005 16.6655 42.6678 16.8634 41.9752C17.0654 41.2785 17.391 40.7446 17.8404 40.3736C18.2897 40.0026 18.8855 39.8171 19.6275 39.8171C20.3283 39.8171 20.9055 40.0026 21.359 40.3736C21.8166 40.7405 22.1546 41.2723 22.3731 41.969C22.5957 42.6616 22.707 43.4964 22.707 44.4735ZM18.0321 44.4735C18.0321 45.2361 18.0816 45.8731 18.1805 46.3843C18.2836 46.8954 18.4526 47.2788 18.6876 47.5344C18.9226 47.7859 19.2359 47.9117 19.6275 47.9117C20.0191 47.9117 20.3325 47.7859 20.5674 47.5344C20.8024 47.283 20.9715 46.9016 21.0745 46.3904C21.1817 45.8792 21.2353 45.2403 21.2353 44.4735C21.2353 43.7149 21.1838 43.08 21.0807 42.5689C20.9776 42.0577 20.8086 41.6743 20.5736 41.4187C20.3386 41.1589 20.0233 41.0291 19.6275 41.0291C19.2317 41.0291 18.9164 41.1589 18.6814 41.4187C18.4505 41.6743 18.2836 42.0577 18.1805 42.5689C18.0816 43.08 18.0321 43.7149 18.0321 44.4735ZM30.7151 44.4735C30.7151 45.2031 30.6574 45.8566 30.542 46.4337C30.4307 47.0068 30.2534 47.4932 30.0102 47.8931C29.7669 48.293 29.4495 48.5981 29.0579 48.8083C28.6662 49.0186 28.1921 49.1237 27.6356 49.1237C26.9389 49.1237 26.3638 48.9402 25.9103 48.5733C25.4568 48.2023 25.1208 47.6705 24.9024 46.9779C24.6839 46.2812 24.5746 45.4464 24.5746 44.4735C24.5746 43.5005 24.6736 42.6678 24.8714 41.9752C25.0734 41.2785 25.3991 40.7446 25.8485 40.3736C26.2978 40.0026 26.8935 39.8171 27.6356 39.8171C28.3364 39.8171 28.9136 40.0026 29.3671 40.3736C29.8247 40.7405 30.1627 41.2723 30.3812 41.969C30.6038 42.6616 30.7151 43.4964 30.7151 44.4735ZM26.0402 44.4735C26.0402 45.2361 26.0896 45.8731 26.1886 46.3843C26.2916 46.8954 26.4607 47.2788 26.6957 47.5344C26.9306 47.7859 27.244 47.9117 27.6356 47.9117C28.0272 47.9117 28.3405 47.7859 28.5755 47.5344C28.8105 47.283 28.9795 46.9016 29.0826 46.3904C29.1898 45.8792 29.2434 45.2403 29.2434 44.4735C29.2434 43.7149 29.1918 43.08 29.0888 42.5689C28.9857 42.0577 28.8167 41.6743 28.5817 41.4187C28.3467 41.1589 28.0314 41.0291 27.6356 41.0291C27.2398 41.0291 26.9245 41.1589 26.6895 41.4187C26.4586 41.6743 26.2916 42.0577 26.1886 42.5689C26.0896 43.08 26.0402 43.7149 26.0402 44.4735ZM38.7232 44.4735C38.7232 45.2031 38.6655 45.8566 38.5501 46.4337C38.4388 47.0068 38.2615 47.4932 38.0183 47.8931C37.775 48.293 37.4576 48.5981 37.066 48.8083C36.6743 49.0186 36.2002 49.1237 35.6437 49.1237C34.947 49.1237 34.3719 48.9402 33.9184 48.5733C33.4649 48.2023 33.1289 47.6705 32.9104 46.9779C32.6919 46.2812 32.5827 45.4464 32.5827 44.4735C32.5827 43.5005 32.6816 42.6678 32.8795 41.9752C33.0815 41.2785 33.4072 40.7446 33.8566 40.3736C34.3059 40.0026 34.9016 39.8171 35.6437 39.8171C36.3445 39.8171 36.9217 40.0026 37.3751 40.3736C37.8327 40.7405 38.1708 41.2723 38.3893 41.969C38.6119 42.6616 38.7232 43.4964 38.7232 44.4735ZM34.0483 44.4735C34.0483 45.2361 34.0977 45.8731 34.1967 46.3843C34.2997 46.8954 34.4688 47.2788 34.7037 47.5344C34.9387 47.7859 35.252 47.9117 35.6437 47.9117C36.0353 47.9117 36.3486 47.7859 36.5836 47.5344C36.8186 47.283 36.9876 46.9016 37.0907 46.3904C37.1979 45.8792 37.2515 45.2403 37.2515 44.4735C37.2515 43.7149 37.1999 43.08 37.0969 42.5689C36.9938 42.0577 36.8248 41.6743 36.5898 41.4187C36.3548 41.1589 36.0394 41.0291 35.6437 41.0291C35.2479 41.0291 34.9325 41.1589 34.6976 41.4187C34.4667 41.6743 34.2997 42.0577 34.1967 42.5689C34.0977 43.08 34.0483 43.7149 34.0483 44.4735Z" fill="#929292"/>
<path d="M3.20321 85.7359V84.462C2.69201 84.4538 2.21998 84.4084 1.78712 84.326C1.35837 84.2394 0.987346 84.1281 0.674034 83.992V82.6749C0.991469 82.8233 1.38311 82.9573 1.84896 83.0768C2.3148 83.1964 2.76622 83.2644 3.20321 83.2809V80.962C2.60544 80.76 2.11898 80.5497 1.74383 80.3312C1.3728 80.1127 1.10072 79.8592 0.92757 79.5706C0.754423 79.2779 0.66785 78.9275 0.66785 78.5194C0.66785 78.0989 0.772975 77.7382 0.983224 77.4372C1.1976 77.1321 1.49442 76.891 1.87369 76.7137C2.25709 76.5364 2.70026 76.4313 3.20321 76.3983V75.3904H4.0071V76.3798C4.4647 76.3922 4.88726 76.4437 5.27478 76.5344C5.66642 76.621 6.03951 76.7426 6.39405 76.8992L5.94263 78.0494C5.63344 77.9257 5.31188 77.8247 4.97796 77.7464C4.64403 77.6681 4.32041 77.6145 4.0071 77.5856V79.8489C4.51005 80.0138 4.95734 80.1911 5.34898 80.3807C5.74475 80.5703 6.05394 80.8094 6.27655 81.098C6.50329 81.3825 6.61666 81.7556 6.61666 82.2173C6.61666 82.8233 6.39405 83.3242 5.94881 83.72C5.50358 84.1116 4.85634 84.3466 4.0071 84.4249V85.7359H3.20321ZM4.0071 83.2314C4.40286 83.182 4.69762 83.0789 4.89138 82.9222C5.08514 82.7615 5.18202 82.5533 5.18202 82.2977C5.18202 82.1245 5.1408 81.9782 5.05835 81.8586C4.98002 81.7391 4.85428 81.6319 4.68113 81.5371C4.51211 81.4423 4.28743 81.3495 4.0071 81.2588V83.2314ZM3.20321 79.5459V77.6104C2.9641 77.6351 2.7621 77.6846 2.59719 77.7588C2.43229 77.833 2.30862 77.9299 2.22617 78.0494C2.14372 78.169 2.10249 78.3112 2.10249 78.4761C2.10249 78.6575 2.13959 78.8121 2.2138 78.9399C2.28801 79.0677 2.4055 79.179 2.56628 79.2738C2.73118 79.3686 2.94349 79.4593 3.20321 79.5459ZM11.6503 79.348C12.2316 79.348 12.7428 79.4531 13.1839 79.6634C13.6292 79.8695 13.9754 80.1746 14.2228 80.5786C14.4702 80.9785 14.5938 81.4691 14.5938 82.0503C14.5938 82.6852 14.4598 83.2335 14.1919 83.6952C13.9239 84.1528 13.5302 84.5053 13.0108 84.7526C12.4913 85 11.8585 85.1237 11.1124 85.1237C10.6383 85.1237 10.1951 85.0825 9.78284 85C9.3747 84.9175 9.02223 84.7939 8.72541 84.629V83.318C9.0346 83.4912 9.40562 83.6334 9.83849 83.7447C10.2714 83.8519 10.6857 83.9055 11.0814 83.9055C11.5019 83.9055 11.8627 83.8436 12.1636 83.72C12.4645 83.5963 12.6954 83.4066 12.8562 83.151C13.0211 82.8954 13.1035 82.5718 13.1035 82.1802C13.1035 81.6607 12.9366 81.2609 12.6026 80.9805C12.2728 80.6961 11.7555 80.5538 11.0505 80.5538C10.8032 80.5538 10.5393 80.5765 10.259 80.6219C9.98278 80.6631 9.75192 80.7084 9.5664 80.7579L8.92947 80.3807L9.26958 75.9593H13.9693V77.2393H10.5496L10.3517 79.4902C10.5002 79.4573 10.6774 79.4263 10.8836 79.3975C11.0897 79.3645 11.3453 79.348 11.6503 79.348ZM22.707 80.4735C22.707 81.2031 22.6493 81.8566 22.5339 82.4337C22.4226 83.0068 22.2453 83.4932 22.0021 83.8931C21.7589 84.293 21.4414 84.5981 21.0498 84.8083C20.6581 85.0186 20.1841 85.1237 19.6275 85.1237C18.9308 85.1237 18.3557 84.9402 17.9022 84.5733C17.4488 84.2023 17.1128 83.6705 16.8943 82.9779C16.6758 82.2812 16.5665 81.4464 16.5665 80.4735C16.5665 79.5005 16.6655 78.6678 16.8634 77.9752C17.0654 77.2785 17.391 76.7446 17.8404 76.3736C18.2897 76.0026 18.8855 75.8171 19.6275 75.8171C20.3283 75.8171 20.9055 76.0026 21.359 76.3736C21.8166 76.7405 22.1546 77.2723 22.3731 77.969C22.5957 78.6616 22.707 79.4964 22.707 80.4735ZM18.0321 80.4735C18.0321 81.2361 18.0816 81.8731 18.1805 82.3843C18.2836 82.8954 18.4526 83.2788 18.6876 83.5344C18.9226 83.7859 19.2359 83.9117 19.6275 83.9117C20.0191 83.9117 20.3325 83.7859 20.5674 83.5344C20.8024 83.283 20.9715 82.9016 21.0745 82.3904C21.1817 81.8792 21.2353 81.2403 21.2353 80.4735C21.2353 79.7149 21.1838 79.08 21.0807 78.5689C20.9776 78.0577 20.8086 77.6743 20.5736 77.4187C20.3386 77.1589 20.0233 77.0291 19.6275 77.0291C19.2317 77.0291 18.9164 77.1589 18.6814 77.4187C18.4505 77.6743 18.2836 78.0577 18.1805 78.5689C18.0816 79.08 18.0321 79.7149 18.0321 80.4735ZM30.7151 80.4735C30.7151 81.2031 30.6574 81.8566 30.542 82.4337C30.4307 83.0068 30.2534 83.4932 30.0102 83.8931C29.7669 84.293 29.4495 84.5981 29.0579 84.8083C28.6662 85.0186 28.1921 85.1237 27.6356 85.1237C26.9389 85.1237 26.3638 84.9402 25.9103 84.5733C25.4568 84.2023 25.1208 83.6705 24.9024 82.9779C24.6839 82.2812 24.5746 81.4464 24.5746 80.4735C24.5746 79.5005 24.6736 78.6678 24.8714 77.9752C25.0734 77.2785 25.3991 76.7446 25.8485 76.3736C26.2978 76.0026 26.8935 75.8171 27.6356 75.8171C28.3364 75.8171 28.9136 76.0026 29.3671 76.3736C29.8247 76.7405 30.1627 77.2723 30.3812 77.969C30.6038 78.6616 30.7151 79.4964 30.7151 80.4735ZM26.0402 80.4735C26.0402 81.2361 26.0896 81.8731 26.1886 82.3843C26.2916 82.8954 26.4607 83.2788 26.6957 83.5344C26.9306 83.7859 27.244 83.9117 27.6356 83.9117C28.0272 83.9117 28.3405 83.7859 28.5755 83.5344C28.8105 83.283 28.9795 82.9016 29.0826 82.3904C29.1898 81.8792 29.2434 81.2403 29.2434 80.4735C29.2434 79.7149 29.1918 79.08 29.0888 78.5689C28.9857 78.0577 28.8167 77.6743 28.5817 77.4187C28.3467 77.1589 28.0314 77.0291 27.6356 77.0291C27.2398 77.0291 26.9245 77.1589 26.6895 77.4187C26.4586 77.6743 26.2916 78.0577 26.1886 78.5689C26.0896 79.08 26.0402 79.7149 26.0402 80.4735Z" fill="#929292"/>
<path d="M3.20321 121.736V120.462C2.69201 120.454 2.21998 120.408 1.78712 120.326C1.35837 120.239 0.987346 120.128 0.674034 119.992V118.675C0.991469 118.823 1.38311 118.957 1.84896 119.077C2.3148 119.196 2.76622 119.264 3.20321 119.281V116.962C2.60544 116.76 2.11898 116.55 1.74383 116.331C1.3728 116.113 1.10072 115.859 0.92757 115.571C0.754423 115.278 0.66785 114.928 0.66785 114.519C0.66785 114.099 0.772975 113.738 0.983224 113.437C1.1976 113.132 1.49442 112.891 1.87369 112.714C2.25709 112.536 2.70026 112.431 3.20321 112.398V111.39H4.0071V112.38C4.4647 112.392 4.88726 112.444 5.27478 112.534C5.66642 112.621 6.03951 112.743 6.39405 112.899L5.94263 114.049C5.63344 113.926 5.31188 113.825 4.97796 113.746C4.64403 113.668 4.32041 113.614 4.0071 113.586V115.849C4.51005 116.014 4.95734 116.191 5.34898 116.381C5.74475 116.57 6.05394 116.809 6.27655 117.098C6.50329 117.382 6.61666 117.756 6.61666 118.217C6.61666 118.823 6.39405 119.324 5.94881 119.72C5.50358 120.112 4.85634 120.347 4.0071 120.425V121.736H3.20321ZM4.0071 119.231C4.40286 119.182 4.69762 119.079 4.89138 118.922C5.08514 118.761 5.18202 118.553 5.18202 118.298C5.18202 118.125 5.1408 117.978 5.05835 117.859C4.98002 117.739 4.85428 117.632 4.68113 117.537C4.51211 117.442 4.28743 117.349 4.0071 117.259V119.231ZM3.20321 115.546V113.61C2.9641 113.635 2.7621 113.685 2.59719 113.759C2.43229 113.833 2.30862 113.93 2.22617 114.049C2.14372 114.169 2.10249 114.311 2.10249 114.476C2.10249 114.657 2.13959 114.812 2.2138 114.94C2.28801 115.068 2.4055 115.179 2.56628 115.274C2.73118 115.369 2.94349 115.459 3.20321 115.546ZM12.85 121H11.3906V115.181C11.3906 114.987 11.3927 114.794 11.3968 114.6C11.4009 114.406 11.4051 114.216 11.4092 114.031C11.4174 113.845 11.4277 113.668 11.4401 113.499C11.3535 113.594 11.2463 113.697 11.1185 113.808C10.9949 113.92 10.8629 114.035 10.7228 114.155L9.68389 114.983L8.95421 114.062L11.638 111.959H12.85V121ZM22.707 116.473C22.707 117.203 22.6493 117.857 22.5339 118.434C22.4226 119.007 22.2453 119.493 22.0021 119.893C21.7589 120.293 21.4414 120.598 21.0498 120.808C20.6581 121.019 20.1841 121.124 19.6275 121.124C18.9308 121.124 18.3557 120.94 17.9022 120.573C17.4488 120.202 17.1128 119.67 16.8943 118.978C16.6758 118.281 16.5665 117.446 16.5665 116.473C16.5665 115.501 16.6655 114.668 16.8634 113.975C17.0654 113.278 17.391 112.745 17.8404 112.374C18.2897 112.003 18.8855 111.817 19.6275 111.817C20.3283 111.817 20.9055 112.003 21.359 112.374C21.8166 112.741 22.1546 113.272 22.3731 113.969C22.5957 114.662 22.707 115.496 22.707 116.473ZM18.0321 116.473C18.0321 117.236 18.0816 117.873 18.1805 118.384C18.2836 118.895 18.4526 119.279 18.6876 119.534C18.9226 119.786 19.2359 119.912 19.6275 119.912C20.0191 119.912 20.3325 119.786 20.5674 119.534C20.8024 119.283 20.9715 118.902 21.0745 118.39C21.1817 117.879 21.2353 117.24 21.2353 116.473C21.2353 115.715 21.1838 115.08 21.0807 114.569C20.9776 114.058 20.8086 113.674 20.5736 113.419C20.3386 113.159 20.0233 113.029 19.6275 113.029C19.2317 113.029 18.9164 113.159 18.6814 113.419C18.4505 113.674 18.2836 114.058 18.1805 114.569C18.0816 115.08 18.0321 115.715 18.0321 116.473ZM30.7151 116.473C30.7151 117.203 30.6574 117.857 30.542 118.434C30.4307 119.007 30.2534 119.493 30.0102 119.893C29.7669 120.293 29.4495 120.598 29.0579 120.808C28.6662 121.019 28.1921 121.124 27.6356 121.124C26.9389 121.124 26.3638 120.94 25.9103 120.573C25.4568 120.202 25.1208 119.67 24.9024 118.978C24.6839 118.281 24.5746 117.446 24.5746 116.473C24.5746 115.501 24.6736 114.668 24.8714 113.975C25.0734 113.278 25.3991 112.745 25.8485 112.374C26.2978 112.003 26.8935 111.817 27.6356 111.817C28.3364 111.817 28.9136 112.003 29.3671 112.374C29.8247 112.741 30.1627 113.272 30.3812 113.969C30.6038 114.662 30.7151 115.496 30.7151 116.473ZM26.0402 116.473C26.0402 117.236 26.0896 117.873 26.1886 118.384C26.2916 118.895 26.4607 119.279 26.6957 119.534C26.9306 119.786 27.244 119.912 27.6356 119.912C28.0272 119.912 28.3405 119.786 28.5755 119.534C28.8105 119.283 28.9795 118.902 29.0826 118.39C29.1898 117.879 29.2434 117.24 29.2434 116.473C29.2434 115.715 29.1918 115.08 29.0888 114.569C28.9857 114.058 28.8167 113.674 28.5817 113.419C28.3467 113.159 28.0314 113.029 27.6356 113.029C27.2398 113.029 26.9245 113.159 26.6895 113.419C26.4586 113.674 26.2916 114.058 26.1886 114.569C26.0896 115.08 26.0402 115.715 26.0402 116.473Z" fill="#929292"/>
<path d="M3.20321 157.736V156.462C2.69201 156.454 2.21998 156.408 1.78712 156.326C1.35837 156.239 0.987346 156.128 0.674034 155.992V154.675C0.991469 154.823 1.38311 154.957 1.84896 155.077C2.3148 155.196 2.76622 155.264 3.20321 155.281V152.962C2.60544 152.76 2.11898 152.55 1.74383 152.331C1.3728 152.113 1.10072 151.859 0.92757 151.571C0.754423 151.278 0.66785 150.928 0.66785 150.519C0.66785 150.099 0.772975 149.738 0.983224 149.437C1.1976 149.132 1.49442 148.891 1.87369 148.714C2.25709 148.536 2.70026 148.431 3.20321 148.398V147.39H4.0071V148.38C4.4647 148.392 4.88726 148.444 5.27478 148.534C5.66642 148.621 6.03951 148.743 6.39405 148.899L5.94263 150.049C5.63344 149.926 5.31188 149.825 4.97796 149.746C4.64403 149.668 4.32041 149.614 4.0071 149.586V151.849C4.51005 152.014 4.95734 152.191 5.34898 152.381C5.74475 152.57 6.05394 152.809 6.27655 153.098C6.50329 153.382 6.61666 153.756 6.61666 154.217C6.61666 154.823 6.39405 155.324 5.94881 155.72C5.50358 156.112 4.85634 156.347 4.0071 156.425V157.736H3.20321ZM4.0071 155.231C4.40286 155.182 4.69762 155.079 4.89138 154.922C5.08514 154.761 5.18202 154.553 5.18202 154.298C5.18202 154.125 5.1408 153.978 5.05835 153.859C4.98002 153.739 4.85428 153.632 4.68113 153.537C4.51211 153.442 4.28743 153.349 4.0071 153.259V155.231ZM3.20321 151.546V149.61C2.9641 149.635 2.7621 149.685 2.59719 149.759C2.43229 149.833 2.30862 149.93 2.22617 150.049C2.14372 150.169 2.10249 150.311 2.10249 150.476C2.10249 150.657 2.13959 150.812 2.2138 150.94C2.28801 151.068 2.4055 151.179 2.56628 151.274C2.73118 151.369 2.94349 151.459 3.20321 151.546ZM11.6503 151.348C12.2316 151.348 12.7428 151.453 13.1839 151.663C13.6292 151.87 13.9754 152.175 14.2228 152.579C14.4702 152.978 14.5938 153.469 14.5938 154.05C14.5938 154.685 14.4598 155.233 14.1919 155.695C13.9239 156.153 13.5302 156.505 13.0108 156.753C12.4913 157 11.8585 157.124 11.1124 157.124C10.6383 157.124 10.1951 157.082 9.78284 157C9.3747 156.918 9.02223 156.794 8.72541 156.629V155.318C9.0346 155.491 9.40562 155.633 9.83849 155.745C10.2714 155.852 10.6857 155.905 11.0814 155.905C11.5019 155.905 11.8627 155.844 12.1636 155.72C12.4645 155.596 12.6954 155.407 12.8562 155.151C13.0211 154.895 13.1035 154.572 13.1035 154.18C13.1035 153.661 12.9366 153.261 12.6026 152.981C12.2728 152.696 11.7555 152.554 11.0505 152.554C10.8032 152.554 10.5393 152.577 10.259 152.622C9.98278 152.663 9.75192 152.708 9.5664 152.758L8.92947 152.381L9.26958 147.959H13.9693V149.239H10.5496L10.3517 151.49C10.5002 151.457 10.6774 151.426 10.8836 151.397C11.0897 151.364 11.3453 151.348 11.6503 151.348ZM22.707 152.473C22.707 153.203 22.6493 153.857 22.5339 154.434C22.4226 155.007 22.2453 155.493 22.0021 155.893C21.7589 156.293 21.4414 156.598 21.0498 156.808C20.6581 157.019 20.1841 157.124 19.6275 157.124C18.9308 157.124 18.3557 156.94 17.9022 156.573C17.4488 156.202 17.1128 155.67 16.8943 154.978C16.6758 154.281 16.5665 153.446 16.5665 152.473C16.5665 151.501 16.6655 150.668 16.8634 149.975C17.0654 149.278 17.391 148.745 17.8404 148.374C18.2897 148.003 18.8855 147.817 19.6275 147.817C20.3283 147.817 20.9055 148.003 21.359 148.374C21.8166 148.741 22.1546 149.272 22.3731 149.969C22.5957 150.662 22.707 151.496 22.707 152.473ZM18.0321 152.473C18.0321 153.236 18.0816 153.873 18.1805 154.384C18.2836 154.895 18.4526 155.279 18.6876 155.534C18.9226 155.786 19.2359 155.912 19.6275 155.912C20.0191 155.912 20.3325 155.786 20.5674 155.534C20.8024 155.283 20.9715 154.902 21.0745 154.39C21.1817 153.879 21.2353 153.24 21.2353 152.473C21.2353 151.715 21.1838 151.08 21.0807 150.569C20.9776 150.058 20.8086 149.674 20.5736 149.419C20.3386 149.159 20.0233 149.029 19.6275 149.029C19.2317 149.029 18.9164 149.159 18.6814 149.419C18.4505 149.674 18.2836 150.058 18.1805 150.569C18.0816 151.08 18.0321 151.715 18.0321 152.473Z" fill="#929292"/>
<path d="M3.20321 193.736V192.462C2.69201 192.454 2.21998 192.408 1.78712 192.326C1.35837 192.239 0.987346 192.128 0.674034 191.992V190.675C0.991469 190.823 1.38311 190.957 1.84896 191.077C2.3148 191.196 2.76622 191.264 3.20321 191.281V188.962C2.60544 188.76 2.11898 188.55 1.74383 188.331C1.3728 188.113 1.10072 187.859 0.92757 187.571C0.754423 187.278 0.66785 186.928 0.66785 186.519C0.66785 186.099 0.772975 185.738 0.983224 185.437C1.1976 185.132 1.49442 184.891 1.87369 184.714C2.25709 184.536 2.70026 184.431 3.20321 184.398V183.39H4.0071V184.38C4.4647 184.392 4.88726 184.444 5.27478 184.534C5.66642 184.621 6.03951 184.743 6.39405 184.899L5.94263 186.049C5.63344 185.926 5.31188 185.825 4.97796 185.746C4.64403 185.668 4.32041 185.614 4.0071 185.586V187.849C4.51005 188.014 4.95734 188.191 5.34898 188.381C5.74475 188.57 6.05394 188.809 6.27655 189.098C6.50329 189.382 6.61666 189.756 6.61666 190.217C6.61666 190.823 6.39405 191.324 5.94881 191.72C5.50358 192.112 4.85634 192.347 4.0071 192.425V193.736H3.20321ZM4.0071 191.231C4.40286 191.182 4.69762 191.079 4.89138 190.922C5.08514 190.761 5.18202 190.553 5.18202 190.298C5.18202 190.125 5.1408 189.978 5.05835 189.859C4.98002 189.739 4.85428 189.632 4.68113 189.537C4.51211 189.442 4.28743 189.349 4.0071 189.259V191.231ZM3.20321 187.546V185.61C2.9641 185.635 2.7621 185.685 2.59719 185.759C2.43229 185.833 2.30862 185.93 2.22617 186.049C2.14372 186.169 2.10249 186.311 2.10249 186.476C2.10249 186.657 2.13959 186.812 2.2138 186.94C2.28801 187.068 2.4055 187.179 2.56628 187.274C2.73118 187.369 2.94349 187.459 3.20321 187.546ZM14.699 188.473C14.699 189.203 14.6412 189.857 14.5258 190.434C14.4145 191.007 14.2372 191.493 13.994 191.893C13.7508 192.293 13.4333 192.598 13.0417 192.808C12.6501 193.019 12.176 193.124 11.6194 193.124C10.9227 193.124 10.3476 192.94 9.89414 192.573C9.44067 192.202 9.10468 191.67 8.88618 190.978C8.66769 190.281 8.55844 189.446 8.55844 188.473C8.55844 187.501 8.65738 186.668 8.85527 185.975C9.05727 185.278 9.38295 184.745 9.83231 184.374C10.2817 184.003 10.8774 183.817 11.6194 183.817C12.3203 183.817 12.8974 184.003 13.3509 184.374C13.8085 184.741 14.1465 185.272 14.365 185.969C14.5876 186.662 14.699 187.496 14.699 188.473ZM10.024 188.473C10.024 189.236 10.0735 189.873 10.1724 190.384C10.2755 190.895 10.4445 191.279 10.6795 191.534C10.9145 191.786 11.2278 191.912 11.6194 191.912C12.0111 191.912 12.3244 191.786 12.5594 191.534C12.7943 191.283 12.9634 190.902 13.0664 190.39C13.1736 189.879 13.2272 189.24 13.2272 188.473C13.2272 187.715 13.1757 187.08 13.0726 186.569C12.9696 186.058 12.8005 185.674 12.5655 185.419C12.3306 185.159 12.0152 185.029 11.6194 185.029C11.2237 185.029 10.9083 185.159 10.6733 185.419C10.4424 185.674 10.2755 186.058 10.1724 186.569C10.0735 187.08 10.024 187.715 10.024 188.473Z" fill="#929292"/>
<path d="M55 45H398" stroke="#D9D9D9"/>
<path d="M55 9H398" stroke="#D9D9D9"/>
<path d="M55 80.5H398" stroke="#D9D9D9"/>
<path d="M55 116H398" stroke="#D9D9D9"/>
<path d="M55 152H398" stroke="#D9D9D9"/>
<path d="M55 188H398" stroke="#D9D9D9"/>
<rect x="55" y="158.5" width="12" height="5" fill="#0AA11D"/>
<rect x="61" y="155.5" width="1" height="3" fill="#0AA11D"/>
<rect x="70" y="159.5" width="12" height="2" fill="#E20D0D"/>
<rect x="76" y="156.5" width="1" height="3" fill="#E20D0D"/>
<rect x="100.999" y="159.5" width="12" height="3" fill="#E20D0D"/>
<rect x="107.249" y="158.75" width="0.5" height="0.5" fill="#E20D0D" stroke="#E20D0D" stroke-width="0.5"/>
<rect x="115.999" y="160.5" width="12" height="1" fill="#E20D0D"/>
<rect x="121.999" y="159.5" width="1" height="1" fill="#E20D0D"/>
<rect x="160" y="163.5" width="12" height="2" fill="#E20D0D"/>
<rect x="166.25" y="162.75" width="0.5" height="0.5" fill="#E20D0D" stroke="#E20D0D" stroke-width="0.5"/>
<rect x="86" y="158.5" width="7" height="2" fill="#E20D0D"/>
<rect x="89.25" y="157.75" width="0.5" height="2.5" fill="#E20D0D" stroke="#E20D0D" stroke-width="0.5"/>
<rect x="176" y="164.5" width="12" height="2" fill="#E20D0D"/>
<rect x="182.25" y="163.75" width="0.5" height="2.5" fill="#E20D0D" stroke="#E20D0D" stroke-width="0.5"/>
<rect x="237" y="157.5" width="12" height="2" fill="#0AA11D"/>
<rect x="243" y="153.5" width="1" height="7" fill="#0AA11D"/>
<rect width="12" height="2" transform="matrix(1 0 0 -1 252 157.5)" fill="#0AA11D"/>
<rect width="1" height="7" transform="matrix(1 0 0 -1 258 160.5)" fill="#0AA11D"/>
<rect width="12" height="4" transform="matrix(1 0 0 -1 266.001 153.5)" fill="#0AA11D"/>
<rect width="1" height="9" transform="matrix(1 0 0 -1 272.001 156.5)" fill="#0AA11D"/>
<rect x="191" y="165.5" width="12" height="4" fill="#E20D0D"/>
<rect x="197.25" y="163.75" width="0.5" height="7.5" fill="#E20D0D" stroke="#E20D0D" stroke-width="0.5"/>
<rect x="312" y="74.5" width="12" height="7" fill="#E20D0D"/>
<rect x="318" y="60.5" width="1" height="26" fill="#E20D0D"/>
<rect x="342" y="41.5" width="12" height="6" fill="#E20D0D"/>
<rect x="348.25" y="26.75" width="0.5" height="25.5" fill="#E20D0D" stroke="#E20D0D" stroke-width="0.5"/>
<rect x="129.999" y="163.5" width="12" height="1" fill="#0AA11D"/>
<rect x="135.999" y="163.5" width="1" height="6" fill="#0AA11D"/>
<rect x="145" y="159.5" width="12" height="5" fill="#0AA11D"/>
<rect x="151" y="159.5" width="1" height="7" fill="#0AA11D"/>
<rect x="206" y="165.5" width="12" height="7" fill="#0AA11D"/>
<rect x="212.25" y="161.75" width="0.5" height="7.5" fill="#0AA11D" stroke="#0AA11D" stroke-width="0.5"/>
<rect width="12" height="7" transform="matrix(1 0 0 -1 221 166.5)" fill="#0AA11D"/>
<rect width="1" height="1" transform="matrix(1 0 0 -1 227 167.5)" fill="#0AA11D"/>
<rect width="12" height="12" transform="matrix(1 0 0 -1 281 150.5)" fill="#0AA11D"/>
<rect width="1" height="3" transform="matrix(1 0 0 -1 287 153.5)" fill="#0AA11D"/>
<rect width="1" height="4" transform="matrix(1 0 0 -1 287 138.5)" fill="#0AA11D"/>
<rect width="12" height="56" transform="matrix(1 0 0 -1 296 133.5)" fill="#0AA11D"/>
<rect width="1" height="3" transform="matrix(1 0 0 -1 302 77.5)" fill="#0AA11D"/>
<rect width="12" height="23" transform="matrix(1 0 0 -1 357.001 50.5)" fill="#0AA11D"/>
<rect width="1" height="3" transform="matrix(1 0 0 -1 363.001 27.5)" fill="#0AA11D"/>
<rect width="12" height="1" transform="matrix(1 0 0 -1 371 24.5)" fill="#0AA11D"/>
<rect width="1" height="22" transform="matrix(1 0 0 -1 377 41.5)" fill="#0AA11D"/>
<rect width="12" height="9" transform="matrix(1 0 0 -1 386 22.5)" fill="#0AA11D"/>
<rect width="1" height="18" transform="matrix(1 0 0 -1 392 26.5)" fill="#0AA11D"/>
<rect x="327" y="51.5" width="12" height="33" fill="#0AA11D"/>
<rect x="333" y="84.5" width="1" height="4" fill="#0AA11D"/>
</svg>
